G04 #@! TF.FileFunction,Legend,Bot*
%FSLAX46Y46*%
G04 Gerber Fmt 4.6, Leading zero omitted, Abs format (unit mm)*
G04 Created by KiCad (PCBNEW 4.0.1-stable) date 1/29/2016 6:59:16 PM*
%MOMM*%
G01*
G04 APERTURE LIST*
%ADD10C,0.100000*%
%ADD11C,0.203200*%
%ADD12C,0.254000*%
%ADD13C,0.127000*%
G04 APERTURE END LIST*
D10*
D11*
X39914286Y-7012819D02*
X40398095Y-7012819D01*
X40398095Y-5996819D01*
X39575619Y-7012819D02*
X39575619Y-5996819D01*
X38995048Y-7012819D02*
X39430476Y-6432248D01*
X38995048Y-5996819D02*
X39575619Y-6577390D01*
X38027429Y-7012819D02*
X38608000Y-7012819D01*
X38317714Y-7012819D02*
X38317714Y-5996819D01*
X38414476Y-6141962D01*
X38511238Y-6238724D01*
X38608000Y-6287105D01*
X36817905Y-6625771D02*
X36043810Y-6625771D01*
X34592381Y-5996819D02*
X34398858Y-5996819D01*
X34302096Y-6045200D01*
X34205334Y-6141962D01*
X34156953Y-6335486D01*
X34156953Y-6674152D01*
X34205334Y-6867676D01*
X34302096Y-6964438D01*
X34398858Y-7012819D01*
X34592381Y-7012819D01*
X34689143Y-6964438D01*
X34785905Y-6867676D01*
X34834286Y-6674152D01*
X34834286Y-6335486D01*
X34785905Y-6141962D01*
X34689143Y-6045200D01*
X34592381Y-5996819D01*
X33721524Y-6335486D02*
X33721524Y-7351486D01*
X33721524Y-6383867D02*
X33624762Y-6335486D01*
X33431239Y-6335486D01*
X33334477Y-6383867D01*
X33286096Y-6432248D01*
X33237715Y-6529010D01*
X33237715Y-6819295D01*
X33286096Y-6916057D01*
X33334477Y-6964438D01*
X33431239Y-7012819D01*
X33624762Y-7012819D01*
X33721524Y-6964438D01*
X32415239Y-6964438D02*
X32512001Y-7012819D01*
X32705524Y-7012819D01*
X32802286Y-6964438D01*
X32850667Y-6867676D01*
X32850667Y-6480629D01*
X32802286Y-6383867D01*
X32705524Y-6335486D01*
X32512001Y-6335486D01*
X32415239Y-6383867D01*
X32366858Y-6480629D01*
X32366858Y-6577390D01*
X32850667Y-6674152D01*
X31931429Y-6335486D02*
X31931429Y-7012819D01*
X31931429Y-6432248D02*
X31883048Y-6383867D01*
X31786286Y-6335486D01*
X31641144Y-6335486D01*
X31544382Y-6383867D01*
X31496001Y-6480629D01*
X31496001Y-7012819D01*
X30092953Y-7012819D02*
X30189715Y-6964438D01*
X30238096Y-6867676D01*
X30238096Y-5996819D01*
X29705906Y-7012819D02*
X29705906Y-6335486D01*
X29705906Y-5996819D02*
X29754287Y-6045200D01*
X29705906Y-6093581D01*
X29657525Y-6045200D01*
X29705906Y-5996819D01*
X29705906Y-6093581D01*
X29222096Y-6335486D02*
X29222096Y-7012819D01*
X29222096Y-6432248D02*
X29173715Y-6383867D01*
X29076953Y-6335486D01*
X28931811Y-6335486D01*
X28835049Y-6383867D01*
X28786668Y-6480629D01*
X28786668Y-7012819D01*
X28302858Y-7012819D02*
X28302858Y-5996819D01*
X28206096Y-6625771D02*
X27915811Y-7012819D01*
X27915811Y-6335486D02*
X28302858Y-6722533D01*
X26851430Y-6335486D02*
X26464382Y-6335486D01*
X26706287Y-5996819D02*
X26706287Y-6867676D01*
X26657906Y-6964438D01*
X26561144Y-7012819D01*
X26464382Y-7012819D01*
X25980573Y-7012819D02*
X26077335Y-6964438D01*
X26125716Y-6916057D01*
X26174097Y-6819295D01*
X26174097Y-6529010D01*
X26125716Y-6432248D01*
X26077335Y-6383867D01*
X25980573Y-6335486D01*
X25835431Y-6335486D01*
X25738669Y-6383867D01*
X25690288Y-6432248D01*
X25641907Y-6529010D01*
X25641907Y-6819295D01*
X25690288Y-6916057D01*
X25738669Y-6964438D01*
X25835431Y-7012819D01*
X25980573Y-7012819D01*
X24045336Y-6964438D02*
X24142098Y-7012819D01*
X24335621Y-7012819D01*
X24432383Y-6964438D01*
X24480764Y-6867676D01*
X24480764Y-6480629D01*
X24432383Y-6383867D01*
X24335621Y-6335486D01*
X24142098Y-6335486D01*
X24045336Y-6383867D01*
X23996955Y-6480629D01*
X23996955Y-6577390D01*
X24480764Y-6674152D01*
X23561526Y-6335486D02*
X23561526Y-7012819D01*
X23561526Y-6432248D02*
X23513145Y-6383867D01*
X23416383Y-6335486D01*
X23271241Y-6335486D01*
X23174479Y-6383867D01*
X23126098Y-6480629D01*
X23126098Y-7012819D01*
X22206860Y-7012819D02*
X22206860Y-6480629D01*
X22255241Y-6383867D01*
X22352003Y-6335486D01*
X22545526Y-6335486D01*
X22642288Y-6383867D01*
X22206860Y-6964438D02*
X22303622Y-7012819D01*
X22545526Y-7012819D01*
X22642288Y-6964438D01*
X22690669Y-6867676D01*
X22690669Y-6770914D01*
X22642288Y-6674152D01*
X22545526Y-6625771D01*
X22303622Y-6625771D01*
X22206860Y-6577390D01*
X21723050Y-7012819D02*
X21723050Y-5996819D01*
X21723050Y-6383867D02*
X21626288Y-6335486D01*
X21432765Y-6335486D01*
X21336003Y-6383867D01*
X21287622Y-6432248D01*
X21239241Y-6529010D01*
X21239241Y-6819295D01*
X21287622Y-6916057D01*
X21336003Y-6964438D01*
X21432765Y-7012819D01*
X21626288Y-7012819D01*
X21723050Y-6964438D01*
X20658669Y-7012819D02*
X20755431Y-6964438D01*
X20803812Y-6867676D01*
X20803812Y-5996819D01*
X19884575Y-6964438D02*
X19981337Y-7012819D01*
X20174860Y-7012819D01*
X20271622Y-6964438D01*
X20320003Y-6867676D01*
X20320003Y-6480629D01*
X20271622Y-6383867D01*
X20174860Y-6335486D01*
X19981337Y-6335486D01*
X19884575Y-6383867D01*
X19836194Y-6480629D01*
X19836194Y-6577390D01*
X20320003Y-6674152D01*
X18675051Y-6964438D02*
X18578289Y-7012819D01*
X18384765Y-7012819D01*
X18288004Y-6964438D01*
X18239623Y-6867676D01*
X18239623Y-6819295D01*
X18288004Y-6722533D01*
X18384765Y-6674152D01*
X18529908Y-6674152D01*
X18626670Y-6625771D01*
X18675051Y-6529010D01*
X18675051Y-6480629D01*
X18626670Y-6383867D01*
X18529908Y-6335486D01*
X18384765Y-6335486D01*
X18288004Y-6383867D01*
X17417147Y-6964438D02*
X17513909Y-7012819D01*
X17707432Y-7012819D01*
X17804194Y-6964438D01*
X17852575Y-6867676D01*
X17852575Y-6480629D01*
X17804194Y-6383867D01*
X17707432Y-6335486D01*
X17513909Y-6335486D01*
X17417147Y-6383867D01*
X17368766Y-6480629D01*
X17368766Y-6577390D01*
X17852575Y-6674152D01*
X16933337Y-7012819D02*
X16933337Y-6335486D01*
X16933337Y-6529010D02*
X16884956Y-6432248D01*
X16836575Y-6383867D01*
X16739813Y-6335486D01*
X16643052Y-6335486D01*
X16304385Y-7012819D02*
X16304385Y-6335486D01*
X16304385Y-5996819D02*
X16352766Y-6045200D01*
X16304385Y-6093581D01*
X16256004Y-6045200D01*
X16304385Y-5996819D01*
X16304385Y-6093581D01*
X15385147Y-7012819D02*
X15385147Y-6480629D01*
X15433528Y-6383867D01*
X15530290Y-6335486D01*
X15723813Y-6335486D01*
X15820575Y-6383867D01*
X15385147Y-6964438D02*
X15481909Y-7012819D01*
X15723813Y-7012819D01*
X15820575Y-6964438D01*
X15868956Y-6867676D01*
X15868956Y-6770914D01*
X15820575Y-6674152D01*
X15723813Y-6625771D01*
X15481909Y-6625771D01*
X15385147Y-6577390D01*
X14756194Y-7012819D02*
X14852956Y-6964438D01*
X14901337Y-6867676D01*
X14901337Y-5996819D01*
X13449909Y-7012819D02*
X13546671Y-6964438D01*
X13595052Y-6916057D01*
X13643433Y-6819295D01*
X13643433Y-6529010D01*
X13595052Y-6432248D01*
X13546671Y-6383867D01*
X13449909Y-6335486D01*
X13304767Y-6335486D01*
X13208005Y-6383867D01*
X13159624Y-6432248D01*
X13111243Y-6529010D01*
X13111243Y-6819295D01*
X13159624Y-6916057D01*
X13208005Y-6964438D01*
X13304767Y-7012819D01*
X13449909Y-7012819D01*
X12240386Y-6335486D02*
X12240386Y-7012819D01*
X12675814Y-6335486D02*
X12675814Y-6867676D01*
X12627433Y-6964438D01*
X12530671Y-7012819D01*
X12385529Y-7012819D01*
X12288767Y-6964438D01*
X12240386Y-6916057D01*
X11901719Y-6335486D02*
X11514671Y-6335486D01*
X11756576Y-5996819D02*
X11756576Y-6867676D01*
X11708195Y-6964438D01*
X11611433Y-7012819D01*
X11514671Y-7012819D01*
X11176005Y-6335486D02*
X11176005Y-7351486D01*
X11176005Y-6383867D02*
X11079243Y-6335486D01*
X10885720Y-6335486D01*
X10788958Y-6383867D01*
X10740577Y-6432248D01*
X10692196Y-6529010D01*
X10692196Y-6819295D01*
X10740577Y-6916057D01*
X10788958Y-6964438D01*
X10885720Y-7012819D01*
X11079243Y-7012819D01*
X11176005Y-6964438D01*
X9821339Y-6335486D02*
X9821339Y-7012819D01*
X10256767Y-6335486D02*
X10256767Y-6867676D01*
X10208386Y-6964438D01*
X10111624Y-7012819D01*
X9966482Y-7012819D01*
X9869720Y-6964438D01*
X9821339Y-6916057D01*
X9482672Y-6335486D02*
X9095624Y-6335486D01*
X9337529Y-5996819D02*
X9337529Y-6867676D01*
X9289148Y-6964438D01*
X9192386Y-7012819D01*
X9095624Y-7012819D01*
X39914286Y-8638419D02*
X40398095Y-8638419D01*
X40398095Y-7622419D01*
X39575619Y-8638419D02*
X39575619Y-7622419D01*
X38995048Y-8638419D02*
X39430476Y-8057848D01*
X38995048Y-7622419D02*
X39575619Y-8202990D01*
X38608000Y-7719181D02*
X38559619Y-7670800D01*
X38462857Y-7622419D01*
X38220953Y-7622419D01*
X38124191Y-7670800D01*
X38075810Y-7719181D01*
X38027429Y-7815943D01*
X38027429Y-7912705D01*
X38075810Y-8057848D01*
X38656381Y-8638419D01*
X38027429Y-8638419D01*
X36817905Y-8251371D02*
X36043810Y-8251371D01*
X34205334Y-8541657D02*
X34253715Y-8590038D01*
X34398858Y-8638419D01*
X34495620Y-8638419D01*
X34640762Y-8590038D01*
X34737524Y-8493276D01*
X34785905Y-8396514D01*
X34834286Y-8202990D01*
X34834286Y-8057848D01*
X34785905Y-7864324D01*
X34737524Y-7767562D01*
X34640762Y-7670800D01*
X34495620Y-7622419D01*
X34398858Y-7622419D01*
X34253715Y-7670800D01*
X34205334Y-7719181D01*
X33624762Y-8638419D02*
X33721524Y-8590038D01*
X33769905Y-8493276D01*
X33769905Y-7622419D01*
X33092572Y-8638419D02*
X33189334Y-8590038D01*
X33237715Y-8541657D01*
X33286096Y-8444895D01*
X33286096Y-8154610D01*
X33237715Y-8057848D01*
X33189334Y-8009467D01*
X33092572Y-7961086D01*
X32947430Y-7961086D01*
X32850668Y-8009467D01*
X32802287Y-8057848D01*
X32753906Y-8154610D01*
X32753906Y-8444895D01*
X32802287Y-8541657D01*
X32850668Y-8590038D01*
X32947430Y-8638419D01*
X33092572Y-8638419D01*
X32366858Y-8590038D02*
X32270096Y-8638419D01*
X32076572Y-8638419D01*
X31979811Y-8590038D01*
X31931430Y-8493276D01*
X31931430Y-8444895D01*
X31979811Y-8348133D01*
X32076572Y-8299752D01*
X32221715Y-8299752D01*
X32318477Y-8251371D01*
X32366858Y-8154610D01*
X32366858Y-8106229D01*
X32318477Y-8009467D01*
X32221715Y-7961086D01*
X32076572Y-7961086D01*
X31979811Y-8009467D01*
X31108954Y-8590038D02*
X31205716Y-8638419D01*
X31399239Y-8638419D01*
X31496001Y-8590038D01*
X31544382Y-8493276D01*
X31544382Y-8106229D01*
X31496001Y-8009467D01*
X31399239Y-7961086D01*
X31205716Y-7961086D01*
X31108954Y-8009467D01*
X31060573Y-8106229D01*
X31060573Y-8202990D01*
X31544382Y-8299752D01*
X29705906Y-8638419D02*
X29802668Y-8590038D01*
X29851049Y-8493276D01*
X29851049Y-7622419D01*
X29318859Y-8638419D02*
X29318859Y-7961086D01*
X29318859Y-7622419D02*
X29367240Y-7670800D01*
X29318859Y-7719181D01*
X29270478Y-7670800D01*
X29318859Y-7622419D01*
X29318859Y-7719181D01*
X28835049Y-7961086D02*
X28835049Y-8638419D01*
X28835049Y-8057848D02*
X28786668Y-8009467D01*
X28689906Y-7961086D01*
X28544764Y-7961086D01*
X28448002Y-8009467D01*
X28399621Y-8106229D01*
X28399621Y-8638419D01*
X27915811Y-8638419D02*
X27915811Y-7622419D01*
X27819049Y-8251371D02*
X27528764Y-8638419D01*
X27528764Y-7961086D02*
X27915811Y-8348133D01*
X26464383Y-7961086D02*
X26077335Y-7961086D01*
X26319240Y-8638419D02*
X26319240Y-7767562D01*
X26270859Y-7670800D01*
X26174097Y-7622419D01*
X26077335Y-7622419D01*
X25593526Y-8638419D02*
X25690288Y-8590038D01*
X25738669Y-8541657D01*
X25787050Y-8444895D01*
X25787050Y-8154610D01*
X25738669Y-8057848D01*
X25690288Y-8009467D01*
X25593526Y-7961086D01*
X25448384Y-7961086D01*
X25351622Y-8009467D01*
X25303241Y-8057848D01*
X25254860Y-8154610D01*
X25254860Y-8444895D01*
X25303241Y-8541657D01*
X25351622Y-8590038D01*
X25448384Y-8638419D01*
X25593526Y-8638419D01*
X24819431Y-8638419D02*
X24819431Y-7961086D01*
X24819431Y-8154610D02*
X24771050Y-8057848D01*
X24722669Y-8009467D01*
X24625907Y-7961086D01*
X24529146Y-7961086D01*
X23464765Y-8348133D02*
X22980956Y-8348133D01*
X23561527Y-8638419D02*
X23222860Y-7622419D01*
X22884194Y-8638419D01*
X22352003Y-7622419D02*
X22255242Y-7622419D01*
X22158480Y-7670800D01*
X22110099Y-7719181D01*
X22061718Y-7815943D01*
X22013337Y-8009467D01*
X22013337Y-8251371D01*
X22061718Y-8444895D01*
X22110099Y-8541657D01*
X22158480Y-8590038D01*
X22255242Y-8638419D01*
X22352003Y-8638419D01*
X22448765Y-8590038D01*
X22497146Y-8541657D01*
X22545527Y-8444895D01*
X22593908Y-8251371D01*
X22593908Y-8009467D01*
X22545527Y-7815943D01*
X22497146Y-7719181D01*
X22448765Y-7670800D01*
X22352003Y-7622419D01*
X20368385Y-8638419D02*
X20368385Y-8106229D01*
X20416766Y-8009467D01*
X20513528Y-7961086D01*
X20707051Y-7961086D01*
X20803813Y-8009467D01*
X20368385Y-8590038D02*
X20465147Y-8638419D01*
X20707051Y-8638419D01*
X20803813Y-8590038D01*
X20852194Y-8493276D01*
X20852194Y-8396514D01*
X20803813Y-8299752D01*
X20707051Y-8251371D01*
X20465147Y-8251371D01*
X20368385Y-8202990D01*
X19884575Y-7961086D02*
X19884575Y-8638419D01*
X19884575Y-8057848D02*
X19836194Y-8009467D01*
X19739432Y-7961086D01*
X19594290Y-7961086D01*
X19497528Y-8009467D01*
X19449147Y-8106229D01*
X19449147Y-8638419D01*
X18529909Y-8638419D02*
X18529909Y-8106229D01*
X18578290Y-8009467D01*
X18675052Y-7961086D01*
X18868575Y-7961086D01*
X18965337Y-8009467D01*
X18529909Y-8590038D02*
X18626671Y-8638419D01*
X18868575Y-8638419D01*
X18965337Y-8590038D01*
X19013718Y-8493276D01*
X19013718Y-8396514D01*
X18965337Y-8299752D01*
X18868575Y-8251371D01*
X18626671Y-8251371D01*
X18529909Y-8202990D01*
X17900956Y-8638419D02*
X17997718Y-8590038D01*
X18046099Y-8493276D01*
X18046099Y-7622419D01*
X17368766Y-8638419D02*
X17465528Y-8590038D01*
X17513909Y-8541657D01*
X17562290Y-8444895D01*
X17562290Y-8154610D01*
X17513909Y-8057848D01*
X17465528Y-8009467D01*
X17368766Y-7961086D01*
X17223624Y-7961086D01*
X17126862Y-8009467D01*
X17078481Y-8057848D01*
X17030100Y-8154610D01*
X17030100Y-8444895D01*
X17078481Y-8541657D01*
X17126862Y-8590038D01*
X17223624Y-8638419D01*
X17368766Y-8638419D01*
X16159243Y-7961086D02*
X16159243Y-8783562D01*
X16207624Y-8880324D01*
X16256005Y-8928705D01*
X16352766Y-8977086D01*
X16497909Y-8977086D01*
X16594671Y-8928705D01*
X16159243Y-8590038D02*
X16256005Y-8638419D01*
X16449528Y-8638419D01*
X16546290Y-8590038D01*
X16594671Y-8541657D01*
X16643052Y-8444895D01*
X16643052Y-8154610D01*
X16594671Y-8057848D01*
X16546290Y-8009467D01*
X16449528Y-7961086D01*
X16256005Y-7961086D01*
X16159243Y-8009467D01*
X14901338Y-8638419D02*
X14901338Y-7961086D01*
X14901338Y-7622419D02*
X14949719Y-7670800D01*
X14901338Y-7719181D01*
X14852957Y-7670800D01*
X14901338Y-7622419D01*
X14901338Y-7719181D01*
X14417528Y-7961086D02*
X14417528Y-8638419D01*
X14417528Y-8057848D02*
X14369147Y-8009467D01*
X14272385Y-7961086D01*
X14127243Y-7961086D01*
X14030481Y-8009467D01*
X13982100Y-8106229D01*
X13982100Y-8638419D01*
X13498290Y-7961086D02*
X13498290Y-8977086D01*
X13498290Y-8009467D02*
X13401528Y-7961086D01*
X13208005Y-7961086D01*
X13111243Y-8009467D01*
X13062862Y-8057848D01*
X13014481Y-8154610D01*
X13014481Y-8444895D01*
X13062862Y-8541657D01*
X13111243Y-8590038D01*
X13208005Y-8638419D01*
X13401528Y-8638419D01*
X13498290Y-8590038D01*
X12143624Y-7961086D02*
X12143624Y-8638419D01*
X12579052Y-7961086D02*
X12579052Y-8493276D01*
X12530671Y-8590038D01*
X12433909Y-8638419D01*
X12288767Y-8638419D01*
X12192005Y-8590038D01*
X12143624Y-8541657D01*
X11804957Y-7961086D02*
X11417909Y-7961086D01*
X11659814Y-7622419D02*
X11659814Y-8493276D01*
X11611433Y-8590038D01*
X11514671Y-8638419D01*
X11417909Y-8638419D01*
X39914286Y-10264019D02*
X40398095Y-10264019D01*
X40398095Y-9248019D01*
X39575619Y-10264019D02*
X39575619Y-9248019D01*
X38995048Y-10264019D02*
X39430476Y-9683448D01*
X38995048Y-9248019D02*
X39575619Y-9828590D01*
X38656381Y-9248019D02*
X38027429Y-9248019D01*
X38366095Y-9635067D01*
X38220953Y-9635067D01*
X38124191Y-9683448D01*
X38075810Y-9731829D01*
X38027429Y-9828590D01*
X38027429Y-10070495D01*
X38075810Y-10167257D01*
X38124191Y-10215638D01*
X38220953Y-10264019D01*
X38511238Y-10264019D01*
X38608000Y-10215638D01*
X38656381Y-10167257D01*
X36817905Y-9876971D02*
X36043810Y-9876971D01*
X34205334Y-10167257D02*
X34253715Y-10215638D01*
X34398858Y-10264019D01*
X34495620Y-10264019D01*
X34640762Y-10215638D01*
X34737524Y-10118876D01*
X34785905Y-10022114D01*
X34834286Y-9828590D01*
X34834286Y-9683448D01*
X34785905Y-9489924D01*
X34737524Y-9393162D01*
X34640762Y-9296400D01*
X34495620Y-9248019D01*
X34398858Y-9248019D01*
X34253715Y-9296400D01*
X34205334Y-9344781D01*
X33624762Y-10264019D02*
X33721524Y-10215638D01*
X33769905Y-10118876D01*
X33769905Y-9248019D01*
X33092572Y-10264019D02*
X33189334Y-10215638D01*
X33237715Y-10167257D01*
X33286096Y-10070495D01*
X33286096Y-9780210D01*
X33237715Y-9683448D01*
X33189334Y-9635067D01*
X33092572Y-9586686D01*
X32947430Y-9586686D01*
X32850668Y-9635067D01*
X32802287Y-9683448D01*
X32753906Y-9780210D01*
X32753906Y-10070495D01*
X32802287Y-10167257D01*
X32850668Y-10215638D01*
X32947430Y-10264019D01*
X33092572Y-10264019D01*
X32366858Y-10215638D02*
X32270096Y-10264019D01*
X32076572Y-10264019D01*
X31979811Y-10215638D01*
X31931430Y-10118876D01*
X31931430Y-10070495D01*
X31979811Y-9973733D01*
X32076572Y-9925352D01*
X32221715Y-9925352D01*
X32318477Y-9876971D01*
X32366858Y-9780210D01*
X32366858Y-9731829D01*
X32318477Y-9635067D01*
X32221715Y-9586686D01*
X32076572Y-9586686D01*
X31979811Y-9635067D01*
X31108954Y-10215638D02*
X31205716Y-10264019D01*
X31399239Y-10264019D01*
X31496001Y-10215638D01*
X31544382Y-10118876D01*
X31544382Y-9731829D01*
X31496001Y-9635067D01*
X31399239Y-9586686D01*
X31205716Y-9586686D01*
X31108954Y-9635067D01*
X31060573Y-9731829D01*
X31060573Y-9828590D01*
X31544382Y-9925352D01*
X29705906Y-10264019D02*
X29802668Y-10215638D01*
X29851049Y-10118876D01*
X29851049Y-9248019D01*
X29318859Y-10264019D02*
X29318859Y-9586686D01*
X29318859Y-9248019D02*
X29367240Y-9296400D01*
X29318859Y-9344781D01*
X29270478Y-9296400D01*
X29318859Y-9248019D01*
X29318859Y-9344781D01*
X28835049Y-9586686D02*
X28835049Y-10264019D01*
X28835049Y-9683448D02*
X28786668Y-9635067D01*
X28689906Y-9586686D01*
X28544764Y-9586686D01*
X28448002Y-9635067D01*
X28399621Y-9731829D01*
X28399621Y-10264019D01*
X27915811Y-10264019D02*
X27915811Y-9248019D01*
X27819049Y-9876971D02*
X27528764Y-10264019D01*
X27528764Y-9586686D02*
X27915811Y-9973733D01*
X26464383Y-9586686D02*
X26077335Y-9586686D01*
X26319240Y-9248019D02*
X26319240Y-10118876D01*
X26270859Y-10215638D01*
X26174097Y-10264019D01*
X26077335Y-10264019D01*
X25593526Y-10264019D02*
X25690288Y-10215638D01*
X25738669Y-10167257D01*
X25787050Y-10070495D01*
X25787050Y-9780210D01*
X25738669Y-9683448D01*
X25690288Y-9635067D01*
X25593526Y-9586686D01*
X25448384Y-9586686D01*
X25351622Y-9635067D01*
X25303241Y-9683448D01*
X25254860Y-9780210D01*
X25254860Y-10070495D01*
X25303241Y-10167257D01*
X25351622Y-10215638D01*
X25448384Y-10264019D01*
X25593526Y-10264019D01*
X24045336Y-10264019D02*
X24045336Y-9248019D01*
X24045336Y-9635067D02*
X23948574Y-9586686D01*
X23755051Y-9586686D01*
X23658289Y-9635067D01*
X23609908Y-9683448D01*
X23561527Y-9780210D01*
X23561527Y-10070495D01*
X23609908Y-10167257D01*
X23658289Y-10215638D01*
X23755051Y-10264019D01*
X23948574Y-10264019D01*
X24045336Y-10215638D01*
X23222860Y-9586686D02*
X22980955Y-10264019D01*
X22739051Y-9586686D02*
X22980955Y-10264019D01*
X23077717Y-10505924D01*
X23126098Y-10554305D01*
X23222860Y-10602686D01*
X22352003Y-9586686D02*
X22352003Y-10602686D01*
X22352003Y-9635067D02*
X22255241Y-9586686D01*
X22061718Y-9586686D01*
X21964956Y-9635067D01*
X21916575Y-9683448D01*
X21868194Y-9780210D01*
X21868194Y-10070495D01*
X21916575Y-10167257D01*
X21964956Y-10215638D01*
X22061718Y-10264019D01*
X22255241Y-10264019D01*
X22352003Y-10215638D01*
X20997337Y-10264019D02*
X20997337Y-9731829D01*
X21045718Y-9635067D01*
X21142480Y-9586686D01*
X21336003Y-9586686D01*
X21432765Y-9635067D01*
X20997337Y-10215638D02*
X21094099Y-10264019D01*
X21336003Y-10264019D01*
X21432765Y-10215638D01*
X21481146Y-10118876D01*
X21481146Y-10022114D01*
X21432765Y-9925352D01*
X21336003Y-9876971D01*
X21094099Y-9876971D01*
X20997337Y-9828590D01*
X20561908Y-10215638D02*
X20465146Y-10264019D01*
X20271622Y-10264019D01*
X20174861Y-10215638D01*
X20126480Y-10118876D01*
X20126480Y-10070495D01*
X20174861Y-9973733D01*
X20271622Y-9925352D01*
X20416765Y-9925352D01*
X20513527Y-9876971D01*
X20561908Y-9780210D01*
X20561908Y-9731829D01*
X20513527Y-9635067D01*
X20416765Y-9586686D01*
X20271622Y-9586686D01*
X20174861Y-9635067D01*
X19739432Y-10215638D02*
X19642670Y-10264019D01*
X19449146Y-10264019D01*
X19352385Y-10215638D01*
X19304004Y-10118876D01*
X19304004Y-10070495D01*
X19352385Y-9973733D01*
X19449146Y-9925352D01*
X19594289Y-9925352D01*
X19691051Y-9876971D01*
X19739432Y-9780210D01*
X19739432Y-9731829D01*
X19691051Y-9635067D01*
X19594289Y-9586686D01*
X19449146Y-9586686D01*
X19352385Y-9635067D01*
X18239623Y-9248019D02*
X17900956Y-10264019D01*
X17562290Y-9248019D01*
X17223623Y-10264019D02*
X17223623Y-9586686D01*
X17223623Y-9780210D02*
X17175242Y-9683448D01*
X17126861Y-9635067D01*
X17030099Y-9586686D01*
X16933338Y-9586686D01*
X16207624Y-10215638D02*
X16304386Y-10264019D01*
X16497909Y-10264019D01*
X16594671Y-10215638D01*
X16643052Y-10118876D01*
X16643052Y-9731829D01*
X16594671Y-9635067D01*
X16497909Y-9586686D01*
X16304386Y-9586686D01*
X16207624Y-9635067D01*
X16159243Y-9731829D01*
X16159243Y-9828590D01*
X16643052Y-9925352D01*
X15288386Y-9586686D02*
X15288386Y-10409162D01*
X15336767Y-10505924D01*
X15385148Y-10554305D01*
X15481909Y-10602686D01*
X15627052Y-10602686D01*
X15723814Y-10554305D01*
X15288386Y-10215638D02*
X15385148Y-10264019D01*
X15578671Y-10264019D01*
X15675433Y-10215638D01*
X15723814Y-10167257D01*
X15772195Y-10070495D01*
X15772195Y-9780210D01*
X15723814Y-9683448D01*
X15675433Y-9635067D01*
X15578671Y-9586686D01*
X15385148Y-9586686D01*
X15288386Y-9635067D01*
X14127243Y-9586686D02*
X13933719Y-10264019D01*
X13740196Y-9780210D01*
X13546672Y-10264019D01*
X13353148Y-9586686D01*
X12966100Y-10264019D02*
X12966100Y-9248019D01*
X12530672Y-10264019D02*
X12530672Y-9731829D01*
X12579053Y-9635067D01*
X12675815Y-9586686D01*
X12820957Y-9586686D01*
X12917719Y-9635067D01*
X12966100Y-9683448D01*
X11659815Y-10215638D02*
X11756577Y-10264019D01*
X11950100Y-10264019D01*
X12046862Y-10215638D01*
X12095243Y-10118876D01*
X12095243Y-9731829D01*
X12046862Y-9635067D01*
X11950100Y-9586686D01*
X11756577Y-9586686D01*
X11659815Y-9635067D01*
X11611434Y-9731829D01*
X11611434Y-9828590D01*
X12095243Y-9925352D01*
X11176005Y-9586686D02*
X11176005Y-10264019D01*
X11176005Y-9683448D02*
X11127624Y-9635067D01*
X11030862Y-9586686D01*
X10885720Y-9586686D01*
X10788958Y-9635067D01*
X10740577Y-9731829D01*
X10740577Y-10264019D01*
X9482672Y-10264019D02*
X9482672Y-9586686D01*
X9482672Y-9780210D02*
X9434291Y-9683448D01*
X9385910Y-9635067D01*
X9289148Y-9586686D01*
X9192387Y-9586686D01*
X8418292Y-10264019D02*
X8418292Y-9731829D01*
X8466673Y-9635067D01*
X8563435Y-9586686D01*
X8756958Y-9586686D01*
X8853720Y-9635067D01*
X8418292Y-10215638D02*
X8515054Y-10264019D01*
X8756958Y-10264019D01*
X8853720Y-10215638D01*
X8902101Y-10118876D01*
X8902101Y-10022114D01*
X8853720Y-9925352D01*
X8756958Y-9876971D01*
X8515054Y-9876971D01*
X8418292Y-9828590D01*
X8031244Y-9586686D02*
X7837720Y-10264019D01*
X7644197Y-9780210D01*
X7450673Y-10264019D01*
X7257149Y-9586686D01*
X32657145Y-11889619D02*
X32657145Y-10873619D01*
X32415240Y-10873619D01*
X32270098Y-10922000D01*
X32173336Y-11018762D01*
X32124955Y-11115524D01*
X32076574Y-11309048D01*
X32076574Y-11454190D01*
X32124955Y-11647714D01*
X32173336Y-11744476D01*
X32270098Y-11841238D01*
X32415240Y-11889619D01*
X32657145Y-11889619D01*
X31060574Y-11792857D02*
X31108955Y-11841238D01*
X31254098Y-11889619D01*
X31350860Y-11889619D01*
X31496002Y-11841238D01*
X31592764Y-11744476D01*
X31641145Y-11647714D01*
X31689526Y-11454190D01*
X31689526Y-11309048D01*
X31641145Y-11115524D01*
X31592764Y-11018762D01*
X31496002Y-10922000D01*
X31350860Y-10873619D01*
X31254098Y-10873619D01*
X31108955Y-10922000D01*
X31060574Y-10970381D01*
X29851050Y-11212286D02*
X29851050Y-12228286D01*
X29851050Y-11260667D02*
X29754288Y-11212286D01*
X29560765Y-11212286D01*
X29464003Y-11260667D01*
X29415622Y-11309048D01*
X29367241Y-11405810D01*
X29367241Y-11696095D01*
X29415622Y-11792857D01*
X29464003Y-11841238D01*
X29560765Y-11889619D01*
X29754288Y-11889619D01*
X29851050Y-11841238D01*
X28786669Y-11889619D02*
X28883431Y-11841238D01*
X28931812Y-11792857D01*
X28980193Y-11696095D01*
X28980193Y-11405810D01*
X28931812Y-11309048D01*
X28883431Y-11260667D01*
X28786669Y-11212286D01*
X28641527Y-11212286D01*
X28544765Y-11260667D01*
X28496384Y-11309048D01*
X28448003Y-11405810D01*
X28448003Y-11696095D01*
X28496384Y-11792857D01*
X28544765Y-11841238D01*
X28641527Y-11889619D01*
X28786669Y-11889619D01*
X28109336Y-11212286D02*
X27915812Y-11889619D01*
X27722289Y-11405810D01*
X27528765Y-11889619D01*
X27335241Y-11212286D01*
X26561146Y-11841238D02*
X26657908Y-11889619D01*
X26851431Y-11889619D01*
X26948193Y-11841238D01*
X26996574Y-11744476D01*
X26996574Y-11357429D01*
X26948193Y-11260667D01*
X26851431Y-11212286D01*
X26657908Y-11212286D01*
X26561146Y-11260667D01*
X26512765Y-11357429D01*
X26512765Y-11454190D01*
X26996574Y-11550952D01*
X26077336Y-11889619D02*
X26077336Y-11212286D01*
X26077336Y-11405810D02*
X26028955Y-11309048D01*
X25980574Y-11260667D01*
X25883812Y-11212286D01*
X25787051Y-11212286D01*
X24674289Y-11889619D02*
X24674289Y-11212286D01*
X24674289Y-10873619D02*
X24722670Y-10922000D01*
X24674289Y-10970381D01*
X24625908Y-10922000D01*
X24674289Y-10873619D01*
X24674289Y-10970381D01*
X24190479Y-11212286D02*
X24190479Y-11889619D01*
X24190479Y-11309048D02*
X24142098Y-11260667D01*
X24045336Y-11212286D01*
X23900194Y-11212286D01*
X23803432Y-11260667D01*
X23755051Y-11357429D01*
X23755051Y-11889619D01*
X23271241Y-11212286D02*
X23271241Y-12228286D01*
X23271241Y-11260667D02*
X23174479Y-11212286D01*
X22980956Y-11212286D01*
X22884194Y-11260667D01*
X22835813Y-11309048D01*
X22787432Y-11405810D01*
X22787432Y-11696095D01*
X22835813Y-11792857D01*
X22884194Y-11841238D01*
X22980956Y-11889619D01*
X23174479Y-11889619D01*
X23271241Y-11841238D01*
X21916575Y-11212286D02*
X21916575Y-11889619D01*
X22352003Y-11212286D02*
X22352003Y-11744476D01*
X22303622Y-11841238D01*
X22206860Y-11889619D01*
X22061718Y-11889619D01*
X21964956Y-11841238D01*
X21916575Y-11792857D01*
X21577908Y-11212286D02*
X21190860Y-11212286D01*
X21432765Y-10873619D02*
X21432765Y-11744476D01*
X21384384Y-11841238D01*
X21287622Y-11889619D01*
X21190860Y-11889619D01*
X20078099Y-11357429D02*
X19304004Y-11357429D01*
X19304004Y-11647714D02*
X20078099Y-11647714D01*
X18142861Y-10873619D02*
X17513909Y-10873619D01*
X17852575Y-11260667D01*
X17707433Y-11260667D01*
X17610671Y-11309048D01*
X17562290Y-11357429D01*
X17513909Y-11454190D01*
X17513909Y-11696095D01*
X17562290Y-11792857D01*
X17610671Y-11841238D01*
X17707433Y-11889619D01*
X17997718Y-11889619D01*
X18094480Y-11841238D01*
X18142861Y-11792857D01*
X17078480Y-11792857D02*
X17030099Y-11841238D01*
X17078480Y-11889619D01*
X17126861Y-11841238D01*
X17078480Y-11792857D01*
X17078480Y-11889619D01*
X16691432Y-10873619D02*
X16062480Y-10873619D01*
X16401146Y-11260667D01*
X16256004Y-11260667D01*
X16159242Y-11309048D01*
X16110861Y-11357429D01*
X16062480Y-11454190D01*
X16062480Y-11696095D01*
X16110861Y-11792857D01*
X16159242Y-11841238D01*
X16256004Y-11889619D01*
X16546289Y-11889619D01*
X16643051Y-11841238D01*
X16691432Y-11792857D01*
X15772194Y-10873619D02*
X15433527Y-11889619D01*
X15094861Y-10873619D01*
X13691814Y-12276667D02*
X13740194Y-12228286D01*
X13836956Y-12083143D01*
X13885337Y-11986381D01*
X13933718Y-11841238D01*
X13982099Y-11599333D01*
X13982099Y-11405810D01*
X13933718Y-11163905D01*
X13885337Y-11018762D01*
X13836956Y-10922000D01*
X13740194Y-10776857D01*
X13691814Y-10728476D01*
X12820957Y-11889619D02*
X13304766Y-11889619D01*
X13304766Y-10873619D01*
X12482290Y-11889619D02*
X12482290Y-10873619D01*
X11901719Y-11889619D02*
X12337147Y-11309048D01*
X11901719Y-10873619D02*
X12482290Y-11454190D01*
X11030862Y-11212286D02*
X11030862Y-11889619D01*
X11272766Y-10825238D02*
X11514671Y-11550952D01*
X10885719Y-11550952D01*
X9724576Y-11357429D02*
X8950481Y-11357429D01*
X8950481Y-11647714D02*
X9724576Y-11647714D01*
X7547433Y-11889619D02*
X7644195Y-11841238D01*
X7692576Y-11792857D01*
X7740957Y-11696095D01*
X7740957Y-11405810D01*
X7692576Y-11309048D01*
X7644195Y-11260667D01*
X7547433Y-11212286D01*
X7402291Y-11212286D01*
X7305529Y-11260667D01*
X7257148Y-11309048D01*
X7208767Y-11405810D01*
X7208767Y-11696095D01*
X7257148Y-11792857D01*
X7305529Y-11841238D01*
X7402291Y-11889619D01*
X7547433Y-11889619D01*
X6773338Y-11212286D02*
X6773338Y-12228286D01*
X6773338Y-11260667D02*
X6676576Y-11212286D01*
X6483053Y-11212286D01*
X6386291Y-11260667D01*
X6337910Y-11309048D01*
X6289529Y-11405810D01*
X6289529Y-11696095D01*
X6337910Y-11792857D01*
X6386291Y-11841238D01*
X6483053Y-11889619D01*
X6676576Y-11889619D01*
X6773338Y-11841238D01*
X5467053Y-11841238D02*
X5563815Y-11889619D01*
X5757338Y-11889619D01*
X5854100Y-11841238D01*
X5902481Y-11744476D01*
X5902481Y-11357429D01*
X5854100Y-11260667D01*
X5757338Y-11212286D01*
X5563815Y-11212286D01*
X5467053Y-11260667D01*
X5418672Y-11357429D01*
X5418672Y-11454190D01*
X5902481Y-11550952D01*
X4983243Y-11212286D02*
X4983243Y-11889619D01*
X4983243Y-11309048D02*
X4934862Y-11260667D01*
X4838100Y-11212286D01*
X4692958Y-11212286D01*
X4596196Y-11260667D01*
X4547815Y-11357429D01*
X4547815Y-11889619D01*
X4160767Y-12276667D02*
X4112386Y-12228286D01*
X4015624Y-12083143D01*
X3967243Y-11986381D01*
X3918862Y-11841238D01*
X3870481Y-11599333D01*
X3870481Y-11405810D01*
X3918862Y-11163905D01*
X3967243Y-11018762D01*
X4015624Y-10922000D01*
X4112386Y-10776857D01*
X4160767Y-10728476D01*
X39914286Y-13515219D02*
X40398095Y-13515219D01*
X40398095Y-12499219D01*
X39575619Y-13515219D02*
X39575619Y-12499219D01*
X38995048Y-13515219D02*
X39430476Y-12934648D01*
X38995048Y-12499219D02*
X39575619Y-13079790D01*
X38124191Y-12837886D02*
X38124191Y-13515219D01*
X38366095Y-12450838D02*
X38608000Y-13176552D01*
X37979048Y-13176552D01*
X36817905Y-13128171D02*
X36043810Y-13128171D01*
X34205334Y-13418457D02*
X34253715Y-13466838D01*
X34398858Y-13515219D01*
X34495620Y-13515219D01*
X34640762Y-13466838D01*
X34737524Y-13370076D01*
X34785905Y-13273314D01*
X34834286Y-13079790D01*
X34834286Y-12934648D01*
X34785905Y-12741124D01*
X34737524Y-12644362D01*
X34640762Y-12547600D01*
X34495620Y-12499219D01*
X34398858Y-12499219D01*
X34253715Y-12547600D01*
X34205334Y-12595981D01*
X33624762Y-13515219D02*
X33721524Y-13466838D01*
X33769905Y-13370076D01*
X33769905Y-12499219D01*
X33092572Y-13515219D02*
X33189334Y-13466838D01*
X33237715Y-13418457D01*
X33286096Y-13321695D01*
X33286096Y-13031410D01*
X33237715Y-12934648D01*
X33189334Y-12886267D01*
X33092572Y-12837886D01*
X32947430Y-12837886D01*
X32850668Y-12886267D01*
X32802287Y-12934648D01*
X32753906Y-13031410D01*
X32753906Y-13321695D01*
X32802287Y-13418457D01*
X32850668Y-13466838D01*
X32947430Y-13515219D01*
X33092572Y-13515219D01*
X32366858Y-13466838D02*
X32270096Y-13515219D01*
X32076572Y-13515219D01*
X31979811Y-13466838D01*
X31931430Y-13370076D01*
X31931430Y-13321695D01*
X31979811Y-13224933D01*
X32076572Y-13176552D01*
X32221715Y-13176552D01*
X32318477Y-13128171D01*
X32366858Y-13031410D01*
X32366858Y-12983029D01*
X32318477Y-12886267D01*
X32221715Y-12837886D01*
X32076572Y-12837886D01*
X31979811Y-12886267D01*
X31108954Y-13466838D02*
X31205716Y-13515219D01*
X31399239Y-13515219D01*
X31496001Y-13466838D01*
X31544382Y-13370076D01*
X31544382Y-12983029D01*
X31496001Y-12886267D01*
X31399239Y-12837886D01*
X31205716Y-12837886D01*
X31108954Y-12886267D01*
X31060573Y-12983029D01*
X31060573Y-13079790D01*
X31544382Y-13176552D01*
X29705906Y-13515219D02*
X29802668Y-13466838D01*
X29851049Y-13370076D01*
X29851049Y-12499219D01*
X29318859Y-13515219D02*
X29318859Y-12837886D01*
X29318859Y-12499219D02*
X29367240Y-12547600D01*
X29318859Y-12595981D01*
X29270478Y-12547600D01*
X29318859Y-12499219D01*
X29318859Y-12595981D01*
X28835049Y-12837886D02*
X28835049Y-13515219D01*
X28835049Y-12934648D02*
X28786668Y-12886267D01*
X28689906Y-12837886D01*
X28544764Y-12837886D01*
X28448002Y-12886267D01*
X28399621Y-12983029D01*
X28399621Y-13515219D01*
X27915811Y-13515219D02*
X27915811Y-12499219D01*
X27819049Y-13128171D02*
X27528764Y-13515219D01*
X27528764Y-12837886D02*
X27915811Y-13224933D01*
X26464383Y-12837886D02*
X26077335Y-12837886D01*
X26319240Y-12499219D02*
X26319240Y-13370076D01*
X26270859Y-13466838D01*
X26174097Y-13515219D01*
X26077335Y-13515219D01*
X25593526Y-13515219D02*
X25690288Y-13466838D01*
X25738669Y-13418457D01*
X25787050Y-13321695D01*
X25787050Y-13031410D01*
X25738669Y-12934648D01*
X25690288Y-12886267D01*
X25593526Y-12837886D01*
X25448384Y-12837886D01*
X25351622Y-12886267D01*
X25303241Y-12934648D01*
X25254860Y-13031410D01*
X25254860Y-13321695D01*
X25303241Y-13418457D01*
X25351622Y-13466838D01*
X25448384Y-13515219D01*
X25593526Y-13515219D01*
X23609908Y-12837886D02*
X23609908Y-13515219D01*
X24045336Y-12837886D02*
X24045336Y-13370076D01*
X23996955Y-13466838D01*
X23900193Y-13515219D01*
X23755051Y-13515219D01*
X23658289Y-13466838D01*
X23609908Y-13418457D01*
X23174479Y-13466838D02*
X23077717Y-13515219D01*
X22884193Y-13515219D01*
X22787432Y-13466838D01*
X22739051Y-13370076D01*
X22739051Y-13321695D01*
X22787432Y-13224933D01*
X22884193Y-13176552D01*
X23029336Y-13176552D01*
X23126098Y-13128171D01*
X23174479Y-13031410D01*
X23174479Y-12983029D01*
X23126098Y-12886267D01*
X23029336Y-12837886D01*
X22884193Y-12837886D01*
X22787432Y-12886267D01*
X21916575Y-13466838D02*
X22013337Y-13515219D01*
X22206860Y-13515219D01*
X22303622Y-13466838D01*
X22352003Y-13370076D01*
X22352003Y-12983029D01*
X22303622Y-12886267D01*
X22206860Y-12837886D01*
X22013337Y-12837886D01*
X21916575Y-12886267D01*
X21868194Y-12983029D01*
X21868194Y-13079790D01*
X22352003Y-13176552D01*
X20707051Y-13224933D02*
X20223242Y-13224933D01*
X20803813Y-13515219D02*
X20465146Y-12499219D01*
X20126480Y-13515219D01*
X19787813Y-13515219D02*
X19787813Y-12837886D01*
X19787813Y-13031410D02*
X19739432Y-12934648D01*
X19691051Y-12886267D01*
X19594289Y-12837886D01*
X19497528Y-12837886D01*
X18723433Y-13515219D02*
X18723433Y-12499219D01*
X18723433Y-13466838D02*
X18820195Y-13515219D01*
X19013718Y-13515219D01*
X19110480Y-13466838D01*
X19158861Y-13418457D01*
X19207242Y-13321695D01*
X19207242Y-13031410D01*
X19158861Y-12934648D01*
X19110480Y-12886267D01*
X19013718Y-12837886D01*
X18820195Y-12837886D01*
X18723433Y-12886267D01*
X17804195Y-12837886D02*
X17804195Y-13515219D01*
X18239623Y-12837886D02*
X18239623Y-13370076D01*
X18191242Y-13466838D01*
X18094480Y-13515219D01*
X17949338Y-13515219D01*
X17852576Y-13466838D01*
X17804195Y-13418457D01*
X17320385Y-13515219D02*
X17320385Y-12837886D01*
X17320385Y-12499219D02*
X17368766Y-12547600D01*
X17320385Y-12595981D01*
X17272004Y-12547600D01*
X17320385Y-12499219D01*
X17320385Y-12595981D01*
X16836575Y-12837886D02*
X16836575Y-13515219D01*
X16836575Y-12934648D02*
X16788194Y-12886267D01*
X16691432Y-12837886D01*
X16546290Y-12837886D01*
X16449528Y-12886267D01*
X16401147Y-12983029D01*
X16401147Y-13515219D01*
X15772194Y-13515219D02*
X15868956Y-13466838D01*
X15917337Y-13418457D01*
X15965718Y-13321695D01*
X15965718Y-13031410D01*
X15917337Y-12934648D01*
X15868956Y-12886267D01*
X15772194Y-12837886D01*
X15627052Y-12837886D01*
X15530290Y-12886267D01*
X15481909Y-12934648D01*
X15433528Y-13031410D01*
X15433528Y-13321695D01*
X15481909Y-13418457D01*
X15530290Y-13466838D01*
X15627052Y-13515219D01*
X15772194Y-13515219D01*
X14949718Y-12499219D02*
X15046480Y-12692743D01*
X14562670Y-13466838D02*
X14465908Y-13515219D01*
X14272384Y-13515219D01*
X14175623Y-13466838D01*
X14127242Y-13370076D01*
X14127242Y-13321695D01*
X14175623Y-13224933D01*
X14272384Y-13176552D01*
X14417527Y-13176552D01*
X14514289Y-13128171D01*
X14562670Y-13031410D01*
X14562670Y-12983029D01*
X14514289Y-12886267D01*
X14417527Y-12837886D01*
X14272384Y-12837886D01*
X14175623Y-12886267D01*
X12772575Y-13515219D02*
X12869337Y-13466838D01*
X12917718Y-13418457D01*
X12966099Y-13321695D01*
X12966099Y-13031410D01*
X12917718Y-12934648D01*
X12869337Y-12886267D01*
X12772575Y-12837886D01*
X12627433Y-12837886D01*
X12530671Y-12886267D01*
X12482290Y-12934648D01*
X12433909Y-13031410D01*
X12433909Y-13321695D01*
X12482290Y-13418457D01*
X12530671Y-13466838D01*
X12627433Y-13515219D01*
X12772575Y-13515219D01*
X11998480Y-12837886D02*
X11998480Y-13515219D01*
X11998480Y-12934648D02*
X11950099Y-12886267D01*
X11853337Y-12837886D01*
X11708195Y-12837886D01*
X11611433Y-12886267D01*
X11563052Y-12983029D01*
X11563052Y-13515219D01*
X11079242Y-13128171D02*
X10305147Y-13128171D01*
X9821337Y-13515219D02*
X9821337Y-12499219D01*
X9821337Y-12886267D02*
X9724575Y-12837886D01*
X9531052Y-12837886D01*
X9434290Y-12886267D01*
X9385909Y-12934648D01*
X9337528Y-13031410D01*
X9337528Y-13321695D01*
X9385909Y-13418457D01*
X9434290Y-13466838D01*
X9531052Y-13515219D01*
X9724575Y-13515219D01*
X9821337Y-13466838D01*
X8756956Y-13515219D02*
X8853718Y-13466838D01*
X8902099Y-13418457D01*
X8950480Y-13321695D01*
X8950480Y-13031410D01*
X8902099Y-12934648D01*
X8853718Y-12886267D01*
X8756956Y-12837886D01*
X8611814Y-12837886D01*
X8515052Y-12886267D01*
X8466671Y-12934648D01*
X8418290Y-13031410D01*
X8418290Y-13321695D01*
X8466671Y-13418457D01*
X8515052Y-13466838D01*
X8611814Y-13515219D01*
X8756956Y-13515219D01*
X7547433Y-13515219D02*
X7547433Y-12983029D01*
X7595814Y-12886267D01*
X7692576Y-12837886D01*
X7886099Y-12837886D01*
X7982861Y-12886267D01*
X7547433Y-13466838D02*
X7644195Y-13515219D01*
X7886099Y-13515219D01*
X7982861Y-13466838D01*
X8031242Y-13370076D01*
X8031242Y-13273314D01*
X7982861Y-13176552D01*
X7886099Y-13128171D01*
X7644195Y-13128171D01*
X7547433Y-13079790D01*
X7063623Y-13515219D02*
X7063623Y-12837886D01*
X7063623Y-13031410D02*
X7015242Y-12934648D01*
X6966861Y-12886267D01*
X6870099Y-12837886D01*
X6773338Y-12837886D01*
X5999243Y-13515219D02*
X5999243Y-12499219D01*
X5999243Y-13466838D02*
X6096005Y-13515219D01*
X6289528Y-13515219D01*
X6386290Y-13466838D01*
X6434671Y-13418457D01*
X6483052Y-13321695D01*
X6483052Y-13031410D01*
X6434671Y-12934648D01*
X6386290Y-12886267D01*
X6289528Y-12837886D01*
X6096005Y-12837886D01*
X5999243Y-12886267D01*
X32802288Y-14124819D02*
X32463621Y-15140819D01*
X32124955Y-14124819D01*
X31786288Y-15140819D02*
X31786288Y-14463486D01*
X31786288Y-14657010D02*
X31737907Y-14560248D01*
X31689526Y-14511867D01*
X31592764Y-14463486D01*
X31496003Y-14463486D01*
X30770289Y-15092438D02*
X30867051Y-15140819D01*
X31060574Y-15140819D01*
X31157336Y-15092438D01*
X31205717Y-14995676D01*
X31205717Y-14608629D01*
X31157336Y-14511867D01*
X31060574Y-14463486D01*
X30867051Y-14463486D01*
X30770289Y-14511867D01*
X30721908Y-14608629D01*
X30721908Y-14705390D01*
X31205717Y-14802152D01*
X29851051Y-14463486D02*
X29851051Y-15285962D01*
X29899432Y-15382724D01*
X29947813Y-15431105D01*
X30044574Y-15479486D01*
X30189717Y-15479486D01*
X30286479Y-15431105D01*
X29851051Y-15092438D02*
X29947813Y-15140819D01*
X30141336Y-15140819D01*
X30238098Y-15092438D01*
X30286479Y-15044057D01*
X30334860Y-14947295D01*
X30334860Y-14657010D01*
X30286479Y-14560248D01*
X30238098Y-14511867D01*
X30141336Y-14463486D01*
X29947813Y-14463486D01*
X29851051Y-14511867D01*
X28302861Y-15527867D02*
X28351241Y-15479486D01*
X28448003Y-15334343D01*
X28496384Y-15237581D01*
X28544765Y-15092438D01*
X28593146Y-14850533D01*
X28593146Y-14657010D01*
X28544765Y-14415105D01*
X28496384Y-14269962D01*
X28448003Y-14173200D01*
X28351241Y-14028057D01*
X28302861Y-13979676D01*
X27432004Y-15140819D02*
X27915813Y-15140819D01*
X27915813Y-14124819D01*
X27093337Y-15140819D02*
X27093337Y-14124819D01*
X26512766Y-15140819D02*
X26948194Y-14560248D01*
X26512766Y-14124819D02*
X27093337Y-14705390D01*
X26174099Y-14124819D02*
X25545147Y-14124819D01*
X25883813Y-14511867D01*
X25738671Y-14511867D01*
X25641909Y-14560248D01*
X25593528Y-14608629D01*
X25545147Y-14705390D01*
X25545147Y-14947295D01*
X25593528Y-15044057D01*
X25641909Y-15092438D01*
X25738671Y-15140819D01*
X26028956Y-15140819D01*
X26125718Y-15092438D01*
X26174099Y-15044057D01*
X24335623Y-14608629D02*
X23561528Y-14608629D01*
X23561528Y-14898914D02*
X24335623Y-14898914D01*
X22158480Y-15140819D02*
X22255242Y-15092438D01*
X22303623Y-15044057D01*
X22352004Y-14947295D01*
X22352004Y-14657010D01*
X22303623Y-14560248D01*
X22255242Y-14511867D01*
X22158480Y-14463486D01*
X22013338Y-14463486D01*
X21916576Y-14511867D01*
X21868195Y-14560248D01*
X21819814Y-14657010D01*
X21819814Y-14947295D01*
X21868195Y-15044057D01*
X21916576Y-15092438D01*
X22013338Y-15140819D01*
X22158480Y-15140819D01*
X21384385Y-14463486D02*
X21384385Y-15479486D01*
X21384385Y-14511867D02*
X21287623Y-14463486D01*
X21094100Y-14463486D01*
X20997338Y-14511867D01*
X20948957Y-14560248D01*
X20900576Y-14657010D01*
X20900576Y-14947295D01*
X20948957Y-15044057D01*
X20997338Y-15092438D01*
X21094100Y-15140819D01*
X21287623Y-15140819D01*
X21384385Y-15092438D01*
X20078100Y-15092438D02*
X20174862Y-15140819D01*
X20368385Y-15140819D01*
X20465147Y-15092438D01*
X20513528Y-14995676D01*
X20513528Y-14608629D01*
X20465147Y-14511867D01*
X20368385Y-14463486D01*
X20174862Y-14463486D01*
X20078100Y-14511867D01*
X20029719Y-14608629D01*
X20029719Y-14705390D01*
X20513528Y-14802152D01*
X19594290Y-14463486D02*
X19594290Y-15140819D01*
X19594290Y-14560248D02*
X19545909Y-14511867D01*
X19449147Y-14463486D01*
X19304005Y-14463486D01*
X19207243Y-14511867D01*
X19158862Y-14608629D01*
X19158862Y-15140819D01*
X18771814Y-15527867D02*
X18723433Y-15479486D01*
X18626671Y-15334343D01*
X18578290Y-15237581D01*
X18529909Y-15092438D01*
X18481528Y-14850533D01*
X18481528Y-14657010D01*
X18529909Y-14415105D01*
X18578290Y-14269962D01*
X18626671Y-14173200D01*
X18723433Y-14028057D01*
X18771814Y-13979676D01*
X40398095Y-16766419D02*
X40398095Y-15750419D01*
X39817524Y-16766419D01*
X39817524Y-15750419D01*
X39188571Y-16766419D02*
X39285333Y-16718038D01*
X39333714Y-16669657D01*
X39382095Y-16572895D01*
X39382095Y-16282610D01*
X39333714Y-16185848D01*
X39285333Y-16137467D01*
X39188571Y-16089086D01*
X39043429Y-16089086D01*
X38946667Y-16137467D01*
X38898286Y-16185848D01*
X38849905Y-16282610D01*
X38849905Y-16572895D01*
X38898286Y-16669657D01*
X38946667Y-16718038D01*
X39043429Y-16766419D01*
X39188571Y-16766419D01*
X38559619Y-16089086D02*
X38172571Y-16089086D01*
X38414476Y-15750419D02*
X38414476Y-16621276D01*
X38366095Y-16718038D01*
X38269333Y-16766419D01*
X38172571Y-16766419D01*
X37446858Y-16718038D02*
X37543620Y-16766419D01*
X37737143Y-16766419D01*
X37833905Y-16718038D01*
X37882286Y-16621276D01*
X37882286Y-16234229D01*
X37833905Y-16137467D01*
X37737143Y-16089086D01*
X37543620Y-16089086D01*
X37446858Y-16137467D01*
X37398477Y-16234229D01*
X37398477Y-16330990D01*
X37882286Y-16427752D01*
X36963048Y-16669657D02*
X36914667Y-16718038D01*
X36963048Y-16766419D01*
X37011429Y-16718038D01*
X36963048Y-16669657D01*
X36963048Y-16766419D01*
X36963048Y-16137467D02*
X36914667Y-16185848D01*
X36963048Y-16234229D01*
X37011429Y-16185848D01*
X36963048Y-16137467D01*
X36963048Y-16234229D01*
X35221334Y-16766419D02*
X35705143Y-16766419D01*
X35705143Y-15750419D01*
X34882667Y-16766419D02*
X34882667Y-15750419D01*
X34302096Y-16766419D02*
X34737524Y-16185848D01*
X34302096Y-15750419D02*
X34882667Y-16330990D01*
X33963429Y-15750419D02*
X33334477Y-15750419D01*
X33673143Y-16137467D01*
X33528001Y-16137467D01*
X33431239Y-16185848D01*
X33382858Y-16234229D01*
X33334477Y-16330990D01*
X33334477Y-16572895D01*
X33382858Y-16669657D01*
X33431239Y-16718038D01*
X33528001Y-16766419D01*
X33818286Y-16766419D01*
X33915048Y-16718038D01*
X33963429Y-16669657D01*
X31689525Y-16766419D02*
X31689525Y-16234229D01*
X31737906Y-16137467D01*
X31834668Y-16089086D01*
X32028191Y-16089086D01*
X32124953Y-16137467D01*
X31689525Y-16718038D02*
X31786287Y-16766419D01*
X32028191Y-16766419D01*
X32124953Y-16718038D01*
X32173334Y-16621276D01*
X32173334Y-16524514D01*
X32124953Y-16427752D01*
X32028191Y-16379371D01*
X31786287Y-16379371D01*
X31689525Y-16330990D01*
X31205715Y-16089086D02*
X31205715Y-16766419D01*
X31205715Y-16185848D02*
X31157334Y-16137467D01*
X31060572Y-16089086D01*
X30915430Y-16089086D01*
X30818668Y-16137467D01*
X30770287Y-16234229D01*
X30770287Y-16766419D01*
X29851049Y-16766419D02*
X29851049Y-15750419D01*
X29851049Y-16718038D02*
X29947811Y-16766419D01*
X30141334Y-16766419D01*
X30238096Y-16718038D01*
X30286477Y-16669657D01*
X30334858Y-16572895D01*
X30334858Y-16282610D01*
X30286477Y-16185848D01*
X30238096Y-16137467D01*
X30141334Y-16089086D01*
X29947811Y-16089086D01*
X29851049Y-16137467D01*
X28109335Y-16766419D02*
X28593144Y-16766419D01*
X28593144Y-15750419D01*
X27770668Y-16766419D02*
X27770668Y-15750419D01*
X27190097Y-16766419D02*
X27625525Y-16185848D01*
X27190097Y-15750419D02*
X27770668Y-16330990D01*
X26319240Y-16089086D02*
X26319240Y-16766419D01*
X26561144Y-15702038D02*
X26803049Y-16427752D01*
X26174097Y-16427752D01*
X24577526Y-16766419D02*
X24577526Y-16234229D01*
X24625907Y-16137467D01*
X24722669Y-16089086D01*
X24916192Y-16089086D01*
X25012954Y-16137467D01*
X24577526Y-16718038D02*
X24674288Y-16766419D01*
X24916192Y-16766419D01*
X25012954Y-16718038D01*
X25061335Y-16621276D01*
X25061335Y-16524514D01*
X25012954Y-16427752D01*
X24916192Y-16379371D01*
X24674288Y-16379371D01*
X24577526Y-16330990D01*
X24093716Y-16766419D02*
X24093716Y-16089086D01*
X24093716Y-16282610D02*
X24045335Y-16185848D01*
X23996954Y-16137467D01*
X23900192Y-16089086D01*
X23803431Y-16089086D01*
X23077717Y-16718038D02*
X23174479Y-16766419D01*
X23368002Y-16766419D01*
X23464764Y-16718038D01*
X23513145Y-16621276D01*
X23513145Y-16234229D01*
X23464764Y-16137467D01*
X23368002Y-16089086D01*
X23174479Y-16089086D01*
X23077717Y-16137467D01*
X23029336Y-16234229D01*
X23029336Y-16330990D01*
X23513145Y-16427752D01*
X21819812Y-16766419D02*
X21819812Y-16089086D01*
X21819812Y-16185848D02*
X21771431Y-16137467D01*
X21674669Y-16089086D01*
X21529527Y-16089086D01*
X21432765Y-16137467D01*
X21384384Y-16234229D01*
X21384384Y-16766419D01*
X21384384Y-16234229D02*
X21336003Y-16137467D01*
X21239241Y-16089086D01*
X21094098Y-16089086D01*
X20997336Y-16137467D01*
X20948955Y-16234229D01*
X20948955Y-16766419D01*
X20029717Y-16089086D02*
X20029717Y-16766419D01*
X20465145Y-16089086D02*
X20465145Y-16621276D01*
X20416764Y-16718038D01*
X20320002Y-16766419D01*
X20174860Y-16766419D01*
X20078098Y-16718038D01*
X20029717Y-16669657D01*
X19691050Y-16089086D02*
X19304002Y-16089086D01*
X19545907Y-15750419D02*
X19545907Y-16621276D01*
X19497526Y-16718038D01*
X19400764Y-16766419D01*
X19304002Y-16766419D01*
X18529908Y-16089086D02*
X18529908Y-16766419D01*
X18965336Y-16089086D02*
X18965336Y-16621276D01*
X18916955Y-16718038D01*
X18820193Y-16766419D01*
X18675051Y-16766419D01*
X18578289Y-16718038D01*
X18529908Y-16669657D01*
X17610670Y-16766419D02*
X17610670Y-16234229D01*
X17659051Y-16137467D01*
X17755813Y-16089086D01*
X17949336Y-16089086D01*
X18046098Y-16137467D01*
X17610670Y-16718038D02*
X17707432Y-16766419D01*
X17949336Y-16766419D01*
X18046098Y-16718038D01*
X18094479Y-16621276D01*
X18094479Y-16524514D01*
X18046098Y-16427752D01*
X17949336Y-16379371D01*
X17707432Y-16379371D01*
X17610670Y-16330990D01*
X16981717Y-16766419D02*
X17078479Y-16718038D01*
X17126860Y-16621276D01*
X17126860Y-15750419D01*
X16449527Y-16766419D02*
X16546289Y-16718038D01*
X16594670Y-16621276D01*
X16594670Y-15750419D01*
X16159242Y-16089086D02*
X15917337Y-16766419D01*
X15675433Y-16089086D02*
X15917337Y-16766419D01*
X16014099Y-17008324D01*
X16062480Y-17056705D01*
X16159242Y-17105086D01*
X14127243Y-16718038D02*
X14224005Y-16766419D01*
X14417528Y-16766419D01*
X14514290Y-16718038D01*
X14562671Y-16621276D01*
X14562671Y-16234229D01*
X14514290Y-16137467D01*
X14417528Y-16089086D01*
X14224005Y-16089086D01*
X14127243Y-16137467D01*
X14078862Y-16234229D01*
X14078862Y-16330990D01*
X14562671Y-16427752D01*
X13740195Y-16766419D02*
X13208005Y-16089086D01*
X13740195Y-16089086D02*
X13208005Y-16766419D01*
X12385529Y-16718038D02*
X12482291Y-16766419D01*
X12675814Y-16766419D01*
X12772576Y-16718038D01*
X12820957Y-16669657D01*
X12869338Y-16572895D01*
X12869338Y-16282610D01*
X12820957Y-16185848D01*
X12772576Y-16137467D01*
X12675814Y-16089086D01*
X12482291Y-16089086D01*
X12385529Y-16137467D01*
X11804957Y-16766419D02*
X11901719Y-16718038D01*
X11950100Y-16621276D01*
X11950100Y-15750419D01*
X10982482Y-16089086D02*
X10982482Y-16766419D01*
X11417910Y-16089086D02*
X11417910Y-16621276D01*
X11369529Y-16718038D01*
X11272767Y-16766419D01*
X11127625Y-16766419D01*
X11030863Y-16718038D01*
X10982482Y-16669657D01*
X10547053Y-16718038D02*
X10450291Y-16766419D01*
X10256767Y-16766419D01*
X10160006Y-16718038D01*
X10111625Y-16621276D01*
X10111625Y-16572895D01*
X10160006Y-16476133D01*
X10256767Y-16427752D01*
X10401910Y-16427752D01*
X10498672Y-16379371D01*
X10547053Y-16282610D01*
X10547053Y-16234229D01*
X10498672Y-16137467D01*
X10401910Y-16089086D01*
X10256767Y-16089086D01*
X10160006Y-16137467D01*
X9676196Y-16766419D02*
X9676196Y-16089086D01*
X9676196Y-15750419D02*
X9724577Y-15798800D01*
X9676196Y-15847181D01*
X9627815Y-15798800D01*
X9676196Y-15750419D01*
X9676196Y-15847181D01*
X9289148Y-16089086D02*
X9047243Y-16766419D01*
X8805339Y-16089086D01*
X8031244Y-16718038D02*
X8128006Y-16766419D01*
X8321529Y-16766419D01*
X8418291Y-16718038D01*
X8466672Y-16621276D01*
X8466672Y-16234229D01*
X8418291Y-16137467D01*
X8321529Y-16089086D01*
X8128006Y-16089086D01*
X8031244Y-16137467D01*
X7982863Y-16234229D01*
X7982863Y-16330990D01*
X8466672Y-16427752D01*
D12*
X25400000Y-25019000D02*
X25400000Y-26543000D01*
X20320000Y-26543000D02*
X20320000Y-25019000D01*
X21082000Y-25781000D02*
X19558000Y-25781000D01*
X24892000Y-59309000D02*
G75*
G02X25400000Y-58801000I508000J0D01*
G01*
X25908000Y-58293000D02*
G75*
G02X25400000Y-58801000I-508000J0D01*
G01*
X25400000Y-57785000D02*
G75*
G02X25908000Y-58293000I0J-508000D01*
G01*
X25400000Y-59817000D02*
G75*
G02X24892000Y-59309000I0J508000D01*
G01*
X30480000Y-59817000D02*
G75*
G02X29972000Y-59309000I0J508000D01*
G01*
X30480000Y-57785000D02*
G75*
G02X30988000Y-58293000I0J-508000D01*
G01*
X30988000Y-58293000D02*
G75*
G02X30480000Y-58801000I-508000J0D01*
G01*
X29972000Y-59309000D02*
G75*
G02X30480000Y-58801000I508000J0D01*
G01*
X33020000Y-62865000D02*
X17780000Y-62865000D01*
X17780000Y-62865000D02*
X17780000Y-22225000D01*
X17780000Y-22225000D02*
X33020000Y-22225000D01*
X33020000Y-22225000D02*
X33020000Y-62865000D01*
D13*
X34749619Y-59091286D02*
X33733619Y-59091286D01*
X33733619Y-59478333D01*
X33782000Y-59575095D01*
X33830381Y-59623476D01*
X33927143Y-59671857D01*
X34072286Y-59671857D01*
X34169048Y-59623476D01*
X34217429Y-59575095D01*
X34265810Y-59478333D01*
X34265810Y-59091286D01*
X34701238Y-60058905D02*
X34749619Y-60204048D01*
X34749619Y-60445952D01*
X34701238Y-60542714D01*
X34652857Y-60591095D01*
X34556095Y-60639476D01*
X34459333Y-60639476D01*
X34362571Y-60591095D01*
X34314190Y-60542714D01*
X34265810Y-60445952D01*
X34217429Y-60252429D01*
X34169048Y-60155667D01*
X34120667Y-60107286D01*
X34023905Y-60058905D01*
X33927143Y-60058905D01*
X33830381Y-60107286D01*
X33782000Y-60155667D01*
X33733619Y-60252429D01*
X33733619Y-60494333D01*
X33782000Y-60639476D01*
X34749619Y-61607095D02*
X34749619Y-61026524D01*
X34749619Y-61316810D02*
X33733619Y-61316810D01*
X33878762Y-61220048D01*
X33975524Y-61123286D01*
X34023905Y-61026524D01*
X23319619Y-26682097D02*
X22303619Y-26682097D01*
X22303619Y-26924002D01*
X22352000Y-27069144D01*
X22448762Y-27165906D01*
X22545524Y-27214287D01*
X22739048Y-27262668D01*
X22884190Y-27262668D01*
X23077714Y-27214287D01*
X23174476Y-27165906D01*
X23271238Y-27069144D01*
X23319619Y-26924002D01*
X23319619Y-26682097D01*
X23271238Y-28085144D02*
X23319619Y-27988382D01*
X23319619Y-27794859D01*
X23271238Y-27698097D01*
X23174476Y-27649716D01*
X22787429Y-27649716D01*
X22690667Y-27698097D01*
X22642286Y-27794859D01*
X22642286Y-27988382D01*
X22690667Y-28085144D01*
X22787429Y-28133525D01*
X22884190Y-28133525D01*
X22980952Y-27649716D01*
X23319619Y-29004382D02*
X22787429Y-29004382D01*
X22690667Y-28956001D01*
X22642286Y-28859239D01*
X22642286Y-28665716D01*
X22690667Y-28568954D01*
X23271238Y-29004382D02*
X23319619Y-28907620D01*
X23319619Y-28665716D01*
X23271238Y-28568954D01*
X23174476Y-28520573D01*
X23077714Y-28520573D01*
X22980952Y-28568954D01*
X22932571Y-28665716D01*
X22932571Y-28907620D01*
X22884190Y-29004382D01*
X23319619Y-29633335D02*
X23271238Y-29536573D01*
X23174476Y-29488192D01*
X22303619Y-29488192D01*
X22303619Y-29923620D02*
X23319619Y-30600953D01*
X22303619Y-30600953D02*
X23319619Y-29923620D01*
X22642286Y-30842858D02*
X22642286Y-31229906D01*
X22303619Y-30988001D02*
X23174476Y-30988001D01*
X23271238Y-31036382D01*
X23319619Y-31133144D01*
X23319619Y-31229906D01*
X23319619Y-31568572D02*
X22642286Y-31568572D01*
X22835810Y-31568572D02*
X22739048Y-31616953D01*
X22690667Y-31665334D01*
X22642286Y-31762096D01*
X22642286Y-31858857D01*
X23271238Y-32584571D02*
X23319619Y-32487809D01*
X23319619Y-32294286D01*
X23271238Y-32197524D01*
X23174476Y-32149143D01*
X22787429Y-32149143D01*
X22690667Y-32197524D01*
X22642286Y-32294286D01*
X22642286Y-32487809D01*
X22690667Y-32584571D01*
X22787429Y-32632952D01*
X22884190Y-32632952D01*
X22980952Y-32149143D01*
X23319619Y-33068381D02*
X22642286Y-33068381D01*
X22739048Y-33068381D02*
X22690667Y-33116762D01*
X22642286Y-33213524D01*
X22642286Y-33358666D01*
X22690667Y-33455428D01*
X22787429Y-33503809D01*
X23319619Y-33503809D01*
X22787429Y-33503809D02*
X22690667Y-33552190D01*
X22642286Y-33648952D01*
X22642286Y-33794095D01*
X22690667Y-33890857D01*
X22787429Y-33939238D01*
X23319619Y-33939238D01*
X23271238Y-34810095D02*
X23319619Y-34713333D01*
X23319619Y-34519810D01*
X23271238Y-34423048D01*
X23174476Y-34374667D01*
X22787429Y-34374667D01*
X22690667Y-34423048D01*
X22642286Y-34519810D01*
X22642286Y-34713333D01*
X22690667Y-34810095D01*
X22787429Y-34858476D01*
X22884190Y-34858476D01*
X22980952Y-34374667D01*
X22400381Y-36019619D02*
X22352000Y-36068000D01*
X22303619Y-36164762D01*
X22303619Y-36406666D01*
X22352000Y-36503428D01*
X22400381Y-36551809D01*
X22497143Y-36600190D01*
X22593905Y-36600190D01*
X22739048Y-36551809D01*
X23319619Y-35971238D01*
X23319619Y-36600190D01*
X22642286Y-37471047D02*
X23319619Y-37471047D01*
X22255238Y-37229143D02*
X22980952Y-36987238D01*
X22980952Y-37616190D01*
X22303619Y-38196762D02*
X22303619Y-38293523D01*
X22352000Y-38390285D01*
X22400381Y-38438666D01*
X22497143Y-38487047D01*
X22690667Y-38535428D01*
X22932571Y-38535428D01*
X23126095Y-38487047D01*
X23222857Y-38438666D01*
X23271238Y-38390285D01*
X23319619Y-38293523D01*
X23319619Y-38196762D01*
X23271238Y-38100000D01*
X23222857Y-38051619D01*
X23126095Y-38003238D01*
X22932571Y-37954857D01*
X22690667Y-37954857D01*
X22497143Y-38003238D01*
X22400381Y-38051619D01*
X22352000Y-38100000D01*
X22303619Y-38196762D01*
X22642286Y-39406285D02*
X23319619Y-39406285D01*
X22255238Y-39164381D02*
X22980952Y-38922476D01*
X22980952Y-39551428D01*
X23319619Y-40470666D02*
X23319619Y-39890095D01*
X23319619Y-40180381D02*
X22303619Y-40180381D01*
X22448762Y-40083619D01*
X22545524Y-39986857D01*
X22593905Y-39890095D01*
X22303619Y-41099619D02*
X22303619Y-41196380D01*
X22352000Y-41293142D01*
X22400381Y-41341523D01*
X22497143Y-41389904D01*
X22690667Y-41438285D01*
X22932571Y-41438285D01*
X23126095Y-41389904D01*
X23222857Y-41341523D01*
X23271238Y-41293142D01*
X23319619Y-41196380D01*
X23319619Y-41099619D01*
X23271238Y-41002857D01*
X23222857Y-40954476D01*
X23126095Y-40906095D01*
X22932571Y-40857714D01*
X22690667Y-40857714D01*
X22497143Y-40906095D01*
X22400381Y-40954476D01*
X22352000Y-41002857D01*
X22303619Y-41099619D01*
M02*
