G04 #@! TF.FileFunction,Copper,L1,Top,Signal*
%FSLAX46Y46*%
G04 Gerber Fmt 4.6, Leading zero omitted, Abs format (unit mm)*
G04 Created by KiCad (PCBNEW 4.0.1-stable) date 1/29/2016 6:59:15 PM*
%MOMM*%
G01*
G04 APERTURE LIST*
%ADD10C,0.100000*%
%ADD11C,0.254000*%
%ADD12C,6.858000*%
%ADD13O,1.905000X3.810000*%
%ADD14C,1.397000*%
%ADD15R,1.397000X1.397000*%
%ADD16R,2.275000X2.275000*%
%ADD17C,2.275000*%
%ADD18R,2.750000X0.800000*%
%ADD19R,1.143000X0.635000*%
%ADD20R,0.635000X1.143000*%
%ADD21R,1.270000X1.016000*%
%ADD22R,1.016000X1.270000*%
%ADD23R,0.701040X1.000760*%
%ADD24R,0.762000X0.508000*%
%ADD25R,1.524000X1.524000*%
%ADD26C,1.524000*%
%ADD27C,1.016000*%
%ADD28C,0.508000*%
%ADD29C,1.270000*%
G04 APERTURE END LIST*
D10*
D11*
X46990000Y-13462000D02*
X46990000Y-14478000D01*
D12*
X45720000Y-58420000D03*
X5080000Y-58420000D03*
X5080000Y-5080000D03*
D13*
X16510000Y-55880000D03*
X11430000Y-55880000D03*
D14*
X35560000Y-49530000D03*
X35560000Y-44450000D03*
X35560000Y-46990000D03*
X35560000Y-41910000D03*
X35560000Y-31750000D03*
X35560000Y-34290000D03*
X35560000Y-39370000D03*
X35560000Y-36830000D03*
X35560000Y-26670000D03*
X35560000Y-29210000D03*
X35560000Y-24130000D03*
X35560000Y-21590000D03*
D15*
X35560000Y-19050000D03*
D14*
X15240000Y-49530000D03*
X15240000Y-44450000D03*
X15240000Y-46990000D03*
X15240000Y-41910000D03*
X15240000Y-31750000D03*
X15240000Y-34290000D03*
X15240000Y-39370000D03*
X15240000Y-36830000D03*
X15240000Y-26670000D03*
X15240000Y-29210000D03*
X15240000Y-24130000D03*
X15240000Y-21590000D03*
D15*
X15240000Y-19050000D03*
D16*
X39370000Y-58420000D03*
D17*
X36830000Y-58420000D03*
X46990000Y-34290000D03*
X46990000Y-31750000D03*
X46990000Y-36830000D03*
X46990000Y-29210000D03*
X46990000Y-26670000D03*
D16*
X46990000Y-19050000D03*
D17*
X46990000Y-21590000D03*
X46990000Y-24130000D03*
D15*
X25400000Y-61595000D03*
D14*
X30480000Y-61595000D03*
X25400000Y-23495000D03*
X20320000Y-23495000D03*
D12*
X45720000Y-5080000D03*
D18*
X42125000Y-42545000D03*
X46775000Y-42545000D03*
D19*
X22860000Y-49276000D03*
X22860000Y-50800000D03*
D20*
X24638000Y-53594000D03*
X23114000Y-53594000D03*
D19*
X28575000Y-48387000D03*
X28575000Y-46863000D03*
X31115000Y-48387000D03*
X31115000Y-46863000D03*
D21*
X46990000Y-14732000D03*
X46990000Y-13208000D03*
D22*
X21717000Y-19050000D03*
X20193000Y-19050000D03*
X22733000Y-46990000D03*
X24257000Y-46990000D03*
X19812000Y-46990000D03*
X18288000Y-46990000D03*
D23*
X42227500Y-36195000D03*
X41275000Y-36195000D03*
X40322500Y-36195000D03*
X40322500Y-33655000D03*
X41275000Y-33655000D03*
X42227500Y-33655000D03*
D20*
X30607000Y-42545000D03*
X29083000Y-42545000D03*
X32512000Y-55245000D03*
X30988000Y-55245000D03*
X32512000Y-53340000D03*
X30988000Y-53340000D03*
D24*
X24765000Y-49847500D03*
X24765000Y-51752500D03*
X27305000Y-49847500D03*
X24765000Y-50800000D03*
X27305000Y-51752500D03*
D25*
X46990000Y-48260000D03*
D26*
X46990000Y-50800000D03*
D25*
X43180000Y-50800000D03*
D26*
X43180000Y-48260000D03*
D19*
X31750000Y-37338000D03*
X31750000Y-38862000D03*
D27*
X42672000Y-40132000D03*
X41148000Y-13208000D03*
X27940000Y-45720000D03*
X19558000Y-44831000D03*
D11*
X31750000Y-38862000D02*
X31750000Y-41910000D01*
X31750000Y-41910000D02*
X31115000Y-42545000D01*
D28*
X40322500Y-36195000D02*
X40259000Y-36258500D01*
X40259000Y-36258500D02*
X40259000Y-37465000D01*
D29*
X40640000Y-42545000D02*
X40259000Y-42164000D01*
X40259000Y-42164000D02*
X40259000Y-37465000D01*
D28*
X30607000Y-42545000D02*
X31115000Y-42545000D01*
D29*
X33020000Y-44450000D02*
X31115000Y-42545000D01*
X42125000Y-42545000D02*
X40640000Y-42545000D01*
X39370000Y-43815000D02*
X40640000Y-42545000D01*
X39370000Y-43815000D02*
X39370000Y-50800000D01*
X39370000Y-50800000D02*
X38100000Y-52070000D01*
X38100000Y-52070000D02*
X34290000Y-52070000D01*
X34290000Y-52070000D02*
X33020000Y-50800000D01*
X33020000Y-50800000D02*
X33020000Y-44450000D01*
X42672000Y-40132000D02*
X45974000Y-36830000D01*
X45974000Y-36830000D02*
X46990000Y-36830000D01*
D11*
X41148000Y-13208000D02*
X46990000Y-13208000D01*
D28*
X28575000Y-46863000D02*
X27940000Y-46228000D01*
X27940000Y-46228000D02*
X27940000Y-45720000D01*
D11*
X22860000Y-50800000D02*
X22860000Y-53340000D01*
X22860000Y-53340000D02*
X23114000Y-53594000D01*
D28*
X28575000Y-46863000D02*
X31115000Y-46863000D01*
X24765000Y-50800000D02*
X22860000Y-50800000D01*
X22860000Y-50800000D02*
X21590000Y-50800000D01*
D29*
X20320000Y-49530000D02*
X21590000Y-50800000D01*
X20320000Y-49530000D02*
X15240000Y-49530000D01*
X46990000Y-36830000D02*
X46990000Y-34290000D01*
X46775000Y-42545000D02*
X46775000Y-37045000D01*
X46775000Y-37045000D02*
X46990000Y-36830000D01*
D28*
X28575000Y-48387000D02*
X27908250Y-49053750D01*
X27908250Y-49053750D02*
X27908250Y-49244250D01*
X27305000Y-49847500D02*
X27908250Y-49244250D01*
X27908250Y-49244250D02*
X27940000Y-49276000D01*
X24257000Y-46990000D02*
X25400000Y-45847000D01*
X25400000Y-45847000D02*
X25400000Y-45974000D01*
X25400000Y-45974000D02*
X25400000Y-45847000D01*
D29*
X28829000Y-53340000D02*
X28829000Y-50165000D01*
X27051000Y-48387000D02*
X27940000Y-49276000D01*
X27940000Y-49276000D02*
X28829000Y-50165000D01*
X26924000Y-48387000D02*
X27051000Y-48387000D01*
X26924000Y-48260000D02*
X26924000Y-48387000D01*
X26924000Y-47371000D02*
X26924000Y-48260000D01*
X26924000Y-47371000D02*
X25400000Y-45847000D01*
X25400000Y-45847000D02*
X24765000Y-45212000D01*
D28*
X30988000Y-55245000D02*
X28829000Y-55245000D01*
X28829000Y-55245000D02*
X28956000Y-55245000D01*
X28956000Y-55245000D02*
X28829000Y-55245000D01*
X30988000Y-53340000D02*
X28829000Y-53340000D01*
X28829000Y-53340000D02*
X28956000Y-53340000D01*
X28956000Y-53340000D02*
X28829000Y-53340000D01*
D29*
X36830000Y-58420000D02*
X31369000Y-58420000D01*
X28829000Y-55880000D02*
X28829000Y-55245000D01*
X28829000Y-55245000D02*
X28829000Y-53340000D01*
X31369000Y-58420000D02*
X28829000Y-55880000D01*
D28*
X29083000Y-42545000D02*
X28321000Y-42545000D01*
D29*
X27432000Y-42545000D02*
X24765000Y-45212000D01*
X27432000Y-42545000D02*
X28321000Y-42545000D01*
X22860000Y-43307000D02*
X24765000Y-45212000D01*
X16891000Y-44450000D02*
X18034000Y-43307000D01*
X18034000Y-43307000D02*
X22860000Y-43307000D01*
X15240000Y-44450000D02*
X16891000Y-44450000D01*
D28*
X31115000Y-48387000D02*
X30988000Y-48514000D01*
X28575000Y-48387000D02*
X31115000Y-48387000D01*
D11*
X18288000Y-46990000D02*
X17780000Y-46990000D01*
D29*
X17780000Y-46990000D02*
X15240000Y-46990000D01*
D11*
X41529000Y-30480000D02*
X41910000Y-30480000D01*
X46990000Y-29210000D02*
X43180000Y-29210000D01*
X20955000Y-39370000D02*
X15240000Y-39370000D01*
X29845000Y-30480000D02*
X41529000Y-30480000D01*
X20955000Y-39370000D02*
X29845000Y-30480000D01*
X41910000Y-30480000D02*
X43180000Y-29210000D01*
X15240000Y-19050000D02*
X20193000Y-19050000D01*
X35560000Y-36830000D02*
X32258000Y-36830000D01*
X32258000Y-36830000D02*
X31750000Y-37338000D01*
X35560000Y-36830000D02*
X38735000Y-33655000D01*
X38735000Y-33655000D02*
X40322500Y-33655000D01*
D28*
X19812000Y-46990000D02*
X19812000Y-45974000D01*
D29*
X19558000Y-45720000D02*
X19812000Y-45974000D01*
X19558000Y-44831000D02*
X19558000Y-45720000D01*
D28*
X22860000Y-49276000D02*
X22860000Y-48768000D01*
D29*
X22606000Y-48514000D02*
X22606000Y-47117000D01*
X22860000Y-48768000D02*
X22606000Y-48514000D01*
D28*
X22606000Y-47117000D02*
X22733000Y-46990000D01*
X24765000Y-51752500D02*
X25717500Y-51752500D01*
X25717500Y-49847500D02*
X24765000Y-49847500D01*
X26162000Y-50292000D02*
X25717500Y-49847500D01*
X26162000Y-51308000D02*
X26162000Y-50292000D01*
X25717500Y-51752500D02*
X26162000Y-51308000D01*
X22860000Y-49276000D02*
X24193500Y-49276000D01*
X24193500Y-49276000D02*
X24765000Y-49847500D01*
D11*
X19812000Y-46990000D02*
X20320000Y-46990000D01*
D29*
X20320000Y-46990000D02*
X22098000Y-46990000D01*
D11*
X22098000Y-46990000D02*
X22733000Y-46990000D01*
X46990000Y-14732000D02*
X46990000Y-19050000D01*
X21717000Y-19050000D02*
X23749000Y-17018000D01*
X45466000Y-24130000D02*
X46990000Y-24130000D01*
X38354000Y-17018000D02*
X45466000Y-24130000D01*
X23749000Y-17018000D02*
X38354000Y-17018000D01*
X24638000Y-53594000D02*
X26162000Y-53594000D01*
X27305000Y-52451000D02*
X27305000Y-51752500D01*
X26162000Y-53594000D02*
X27305000Y-52451000D01*
D28*
X32512000Y-55245000D02*
X42545000Y-55245000D01*
X42545000Y-55245000D02*
X46990000Y-50800000D01*
X32512000Y-53340000D02*
X39624000Y-53340000D01*
X40640000Y-53340000D02*
X43180000Y-50800000D01*
X39624000Y-53340000D02*
X40640000Y-53340000D01*
X42227500Y-36195000D02*
X42926000Y-36195000D01*
D29*
X43180000Y-35941000D02*
X43180000Y-33655000D01*
D28*
X42926000Y-36195000D02*
X43180000Y-35941000D01*
X42227500Y-33655000D02*
X43180000Y-33655000D01*
D29*
X46990000Y-31750000D02*
X45085000Y-31750000D01*
X45085000Y-31750000D02*
X43180000Y-33655000D01*
D28*
X41275000Y-33655000D02*
X42227500Y-33655000D01*
X41275000Y-36195000D02*
X42227500Y-36195000D01*
X42227500Y-33655000D02*
X42227500Y-33464500D01*
M02*
