G04 #@! TF.FileFunction,Soldermask,Bot*
%FSLAX46Y46*%
G04 Gerber Fmt 4.6, Leading zero omitted, Abs format (unit mm)*
G04 Created by KiCad (PCBNEW 4.0.1-stable) date 1/29/2016 6:59:16 PM*
%MOMM*%
G01*
G04 APERTURE LIST*
%ADD10C,0.100000*%
%ADD11C,7.258000*%
%ADD12C,1.797000*%
%ADD13R,1.797000X1.797000*%
%ADD14R,2.675000X2.675000*%
%ADD15C,2.675000*%
%ADD16R,1.924000X1.924000*%
%ADD17C,1.924000*%
G04 APERTURE END LIST*
D10*
D11*
X45720000Y-58420000D03*
X5080000Y-58420000D03*
X5080000Y-5080000D03*
D12*
X35560000Y-49530000D03*
X35560000Y-44450000D03*
X35560000Y-46990000D03*
X35560000Y-41910000D03*
X35560000Y-31750000D03*
X35560000Y-34290000D03*
X35560000Y-39370000D03*
X35560000Y-36830000D03*
X35560000Y-26670000D03*
X35560000Y-29210000D03*
X35560000Y-24130000D03*
X35560000Y-21590000D03*
D13*
X35560000Y-19050000D03*
D12*
X15240000Y-49530000D03*
X15240000Y-44450000D03*
X15240000Y-46990000D03*
X15240000Y-41910000D03*
X15240000Y-31750000D03*
X15240000Y-34290000D03*
X15240000Y-39370000D03*
X15240000Y-36830000D03*
X15240000Y-26670000D03*
X15240000Y-29210000D03*
X15240000Y-24130000D03*
X15240000Y-21590000D03*
D13*
X15240000Y-19050000D03*
D14*
X39370000Y-58420000D03*
D15*
X36830000Y-58420000D03*
X46990000Y-34290000D03*
X46990000Y-31750000D03*
X46990000Y-36830000D03*
X46990000Y-29210000D03*
X46990000Y-26670000D03*
D14*
X46990000Y-19050000D03*
D15*
X46990000Y-21590000D03*
X46990000Y-24130000D03*
D13*
X25400000Y-61595000D03*
D12*
X30480000Y-61595000D03*
X25400000Y-23495000D03*
X20320000Y-23495000D03*
D11*
X45720000Y-5080000D03*
D16*
X46990000Y-48260000D03*
D17*
X46990000Y-50800000D03*
D16*
X43180000Y-50800000D03*
D17*
X43180000Y-48260000D03*
M02*
