G04 #@! TF.FileFunction,Legend,Top*
%FSLAX46Y46*%
G04 Gerber Fmt 4.6, Leading zero omitted, Abs format (unit mm)*
G04 Created by KiCad (PCBNEW 4.0.1-stable) date 1/29/2016 6:59:16 PM*
%MOMM*%
G01*
G04 APERTURE LIST*
%ADD10C,0.100000*%
%ADD11C,0.254000*%
%ADD12C,0.203200*%
%ADD13C,0.300000*%
%ADD14C,0.127000*%
%ADD15C,0.150000*%
%ADD16C,0.152400*%
G04 APERTURE END LIST*
D10*
D11*
X12772571Y-3229429D02*
X12264571Y-2503714D01*
X11901714Y-3229429D02*
X11901714Y-1705429D01*
X12482286Y-1705429D01*
X12627428Y-1778000D01*
X12700000Y-1850571D01*
X12772571Y-1995714D01*
X12772571Y-2213429D01*
X12700000Y-2358571D01*
X12627428Y-2431143D01*
X12482286Y-2503714D01*
X11901714Y-2503714D01*
X13933714Y-2431143D02*
X13425714Y-2431143D01*
X13425714Y-3229429D02*
X13425714Y-1705429D01*
X14151428Y-1705429D01*
X15820572Y-2794000D02*
X16546286Y-2794000D01*
X15675429Y-3229429D02*
X16183429Y-1705429D01*
X16691429Y-3229429D01*
X17199429Y-3229429D02*
X17199429Y-2213429D01*
X17199429Y-2503714D02*
X17272001Y-2358571D01*
X17344572Y-2286000D01*
X17489715Y-2213429D01*
X17634858Y-2213429D01*
X18796001Y-3229429D02*
X18796001Y-1705429D01*
X18796001Y-3156857D02*
X18650858Y-3229429D01*
X18360572Y-3229429D01*
X18215430Y-3156857D01*
X18142858Y-3084286D01*
X18070287Y-2939143D01*
X18070287Y-2503714D01*
X18142858Y-2358571D01*
X18215430Y-2286000D01*
X18360572Y-2213429D01*
X18650858Y-2213429D01*
X18796001Y-2286000D01*
X20174858Y-2213429D02*
X20174858Y-3229429D01*
X19521715Y-2213429D02*
X19521715Y-3011714D01*
X19594287Y-3156857D01*
X19739429Y-3229429D01*
X19957144Y-3229429D01*
X20102287Y-3156857D01*
X20174858Y-3084286D01*
X20900572Y-3229429D02*
X20900572Y-2213429D01*
X20900572Y-1705429D02*
X20828001Y-1778000D01*
X20900572Y-1850571D01*
X20973144Y-1778000D01*
X20900572Y-1705429D01*
X20900572Y-1850571D01*
X21626286Y-2213429D02*
X21626286Y-3229429D01*
X21626286Y-2358571D02*
X21698858Y-2286000D01*
X21844000Y-2213429D01*
X22061715Y-2213429D01*
X22206858Y-2286000D01*
X22279429Y-2431143D01*
X22279429Y-3229429D01*
X23222857Y-3229429D02*
X23077715Y-3156857D01*
X23005143Y-3084286D01*
X22932572Y-2939143D01*
X22932572Y-2503714D01*
X23005143Y-2358571D01*
X23077715Y-2286000D01*
X23222857Y-2213429D01*
X23440572Y-2213429D01*
X23585715Y-2286000D01*
X23658286Y-2358571D01*
X23730857Y-2503714D01*
X23730857Y-2939143D01*
X23658286Y-3084286D01*
X23585715Y-3156857D01*
X23440572Y-3229429D01*
X23222857Y-3229429D01*
X25545143Y-3229429D02*
X25545143Y-1705429D01*
X26053143Y-2794000D01*
X26561143Y-1705429D01*
X26561143Y-3229429D01*
X27504571Y-3229429D02*
X27359429Y-3156857D01*
X27286857Y-3084286D01*
X27214286Y-2939143D01*
X27214286Y-2503714D01*
X27286857Y-2358571D01*
X27359429Y-2286000D01*
X27504571Y-2213429D01*
X27722286Y-2213429D01*
X27867429Y-2286000D01*
X27940000Y-2358571D01*
X28012571Y-2503714D01*
X28012571Y-2939143D01*
X27940000Y-3084286D01*
X27867429Y-3156857D01*
X27722286Y-3229429D01*
X27504571Y-3229429D01*
X28448000Y-2213429D02*
X29028571Y-2213429D01*
X28665714Y-1705429D02*
X28665714Y-3011714D01*
X28738286Y-3156857D01*
X28883428Y-3229429D01*
X29028571Y-3229429D01*
X29536571Y-3229429D02*
X29536571Y-1705429D01*
X30189714Y-3229429D02*
X30189714Y-2431143D01*
X30117143Y-2286000D01*
X29972000Y-2213429D01*
X29754285Y-2213429D01*
X29609143Y-2286000D01*
X29536571Y-2358571D01*
X31496000Y-3156857D02*
X31350857Y-3229429D01*
X31060571Y-3229429D01*
X30915428Y-3156857D01*
X30842857Y-3011714D01*
X30842857Y-2431143D01*
X30915428Y-2286000D01*
X31060571Y-2213429D01*
X31350857Y-2213429D01*
X31496000Y-2286000D01*
X31568571Y-2431143D01*
X31568571Y-2576286D01*
X30842857Y-2721429D01*
X32221714Y-3229429D02*
X32221714Y-2213429D01*
X32221714Y-2503714D02*
X32294286Y-2358571D01*
X32366857Y-2286000D01*
X32512000Y-2213429D01*
X32657143Y-2213429D01*
X33165143Y-3229429D02*
X33165143Y-1705429D01*
X33165143Y-2286000D02*
X33310286Y-2213429D01*
X33600572Y-2213429D01*
X33745715Y-2286000D01*
X33818286Y-2358571D01*
X33890857Y-2503714D01*
X33890857Y-2939143D01*
X33818286Y-3084286D01*
X33745715Y-3156857D01*
X33600572Y-3229429D01*
X33310286Y-3229429D01*
X33165143Y-3156857D01*
X34761714Y-3229429D02*
X34616572Y-3156857D01*
X34544000Y-3084286D01*
X34471429Y-2939143D01*
X34471429Y-2503714D01*
X34544000Y-2358571D01*
X34616572Y-2286000D01*
X34761714Y-2213429D01*
X34979429Y-2213429D01*
X35124572Y-2286000D01*
X35197143Y-2358571D01*
X35269714Y-2503714D01*
X35269714Y-2939143D01*
X35197143Y-3084286D01*
X35124572Y-3156857D01*
X34979429Y-3229429D01*
X34761714Y-3229429D01*
X36576000Y-3229429D02*
X36576000Y-2431143D01*
X36503429Y-2286000D01*
X36358286Y-2213429D01*
X36068000Y-2213429D01*
X35922857Y-2286000D01*
X36576000Y-3156857D02*
X36430857Y-3229429D01*
X36068000Y-3229429D01*
X35922857Y-3156857D01*
X35850286Y-3011714D01*
X35850286Y-2866571D01*
X35922857Y-2721429D01*
X36068000Y-2648857D01*
X36430857Y-2648857D01*
X36576000Y-2576286D01*
X37301714Y-3229429D02*
X37301714Y-2213429D01*
X37301714Y-2503714D02*
X37374286Y-2358571D01*
X37446857Y-2286000D01*
X37592000Y-2213429D01*
X37737143Y-2213429D01*
X38898286Y-3229429D02*
X38898286Y-1705429D01*
X38898286Y-3156857D02*
X38753143Y-3229429D01*
X38462857Y-3229429D01*
X38317715Y-3156857D01*
X38245143Y-3084286D01*
X38172572Y-2939143D01*
X38172572Y-2503714D01*
X38245143Y-2358571D01*
X38317715Y-2286000D01*
X38462857Y-2213429D01*
X38753143Y-2213429D01*
X38898286Y-2286000D01*
X21372285Y-4245429D02*
X21880285Y-5769429D01*
X22388285Y-4245429D01*
X23476857Y-5696857D02*
X23331714Y-5769429D01*
X23041428Y-5769429D01*
X22896285Y-5696857D01*
X22823714Y-5551714D01*
X22823714Y-4971143D01*
X22896285Y-4826000D01*
X23041428Y-4753429D01*
X23331714Y-4753429D01*
X23476857Y-4826000D01*
X23549428Y-4971143D01*
X23549428Y-5116286D01*
X22823714Y-5261429D01*
X24202571Y-5769429D02*
X24202571Y-4753429D01*
X24202571Y-5043714D02*
X24275143Y-4898571D01*
X24347714Y-4826000D01*
X24492857Y-4753429D01*
X24638000Y-4753429D01*
X27105429Y-5769429D02*
X26234572Y-5769429D01*
X26670000Y-5769429D02*
X26670000Y-4245429D01*
X26524857Y-4463143D01*
X26379715Y-4608286D01*
X26234572Y-4680857D01*
X27758572Y-5624286D02*
X27831144Y-5696857D01*
X27758572Y-5769429D01*
X27686001Y-5696857D01*
X27758572Y-5624286D01*
X27758572Y-5769429D01*
X28774572Y-4245429D02*
X28919715Y-4245429D01*
X29064858Y-4318000D01*
X29137429Y-4390571D01*
X29210000Y-4535714D01*
X29282572Y-4826000D01*
X29282572Y-5188857D01*
X29210000Y-5479143D01*
X29137429Y-5624286D01*
X29064858Y-5696857D01*
X28919715Y-5769429D01*
X28774572Y-5769429D01*
X28629429Y-5696857D01*
X28556858Y-5624286D01*
X28484286Y-5479143D01*
X28411715Y-5188857D01*
X28411715Y-4826000D01*
X28484286Y-4535714D01*
X28556858Y-4390571D01*
X28629429Y-4318000D01*
X28774572Y-4245429D01*
X14078858Y-7293429D02*
X14369144Y-8309429D01*
X14659430Y-7583714D01*
X14949715Y-8309429D01*
X15240001Y-7293429D01*
X15675429Y-7293429D02*
X15965715Y-8309429D01*
X16256001Y-7583714D01*
X16546286Y-8309429D01*
X16836572Y-7293429D01*
X17272000Y-7293429D02*
X17562286Y-8309429D01*
X17852572Y-7583714D01*
X18142857Y-8309429D01*
X18433143Y-7293429D01*
X19013714Y-8164286D02*
X19086286Y-8236857D01*
X19013714Y-8309429D01*
X18941143Y-8236857D01*
X19013714Y-8164286D01*
X19013714Y-8309429D01*
X20392571Y-8236857D02*
X20247428Y-8309429D01*
X19957142Y-8309429D01*
X19812000Y-8236857D01*
X19739428Y-8164286D01*
X19666857Y-8019143D01*
X19666857Y-7583714D01*
X19739428Y-7438571D01*
X19812000Y-7366000D01*
X19957142Y-7293429D01*
X20247428Y-7293429D01*
X20392571Y-7366000D01*
X21698857Y-8309429D02*
X21698857Y-7511143D01*
X21626286Y-7366000D01*
X21481143Y-7293429D01*
X21190857Y-7293429D01*
X21045714Y-7366000D01*
X21698857Y-8236857D02*
X21553714Y-8309429D01*
X21190857Y-8309429D01*
X21045714Y-8236857D01*
X20973143Y-8091714D01*
X20973143Y-7946571D01*
X21045714Y-7801429D01*
X21190857Y-7728857D01*
X21553714Y-7728857D01*
X21698857Y-7656286D01*
X22352000Y-8236857D02*
X22497143Y-8309429D01*
X22787428Y-8309429D01*
X22932571Y-8236857D01*
X23005143Y-8091714D01*
X23005143Y-8019143D01*
X22932571Y-7874000D01*
X22787428Y-7801429D01*
X22569714Y-7801429D01*
X22424571Y-7728857D01*
X22352000Y-7583714D01*
X22352000Y-7511143D01*
X22424571Y-7366000D01*
X22569714Y-7293429D01*
X22787428Y-7293429D01*
X22932571Y-7366000D01*
X24311428Y-8236857D02*
X24166285Y-8309429D01*
X23875999Y-8309429D01*
X23730857Y-8236857D01*
X23658285Y-8164286D01*
X23585714Y-8019143D01*
X23585714Y-7583714D01*
X23658285Y-7438571D01*
X23730857Y-7366000D01*
X23875999Y-7293429D01*
X24166285Y-7293429D01*
X24311428Y-7366000D01*
X25182285Y-8309429D02*
X25037143Y-8236857D01*
X24964571Y-8164286D01*
X24892000Y-8019143D01*
X24892000Y-7583714D01*
X24964571Y-7438571D01*
X25037143Y-7366000D01*
X25182285Y-7293429D01*
X25400000Y-7293429D01*
X25545143Y-7366000D01*
X25617714Y-7438571D01*
X25690285Y-7583714D01*
X25690285Y-8019143D01*
X25617714Y-8164286D01*
X25545143Y-8236857D01*
X25400000Y-8309429D01*
X25182285Y-8309429D01*
X26561142Y-8309429D02*
X26416000Y-8236857D01*
X26343428Y-8091714D01*
X26343428Y-6785429D01*
X27359428Y-8309429D02*
X27214286Y-8236857D01*
X27141714Y-8164286D01*
X27069143Y-8019143D01*
X27069143Y-7583714D01*
X27141714Y-7438571D01*
X27214286Y-7366000D01*
X27359428Y-7293429D01*
X27577143Y-7293429D01*
X27722286Y-7366000D01*
X27794857Y-7438571D01*
X27867428Y-7583714D01*
X27867428Y-8019143D01*
X27794857Y-8164286D01*
X27722286Y-8236857D01*
X27577143Y-8309429D01*
X27359428Y-8309429D01*
X29173714Y-7293429D02*
X29173714Y-8527143D01*
X29101143Y-8672286D01*
X29028571Y-8744857D01*
X28883428Y-8817429D01*
X28665714Y-8817429D01*
X28520571Y-8744857D01*
X29173714Y-8236857D02*
X29028571Y-8309429D01*
X28738285Y-8309429D01*
X28593143Y-8236857D01*
X28520571Y-8164286D01*
X28448000Y-8019143D01*
X28448000Y-7583714D01*
X28520571Y-7438571D01*
X28593143Y-7366000D01*
X28738285Y-7293429D01*
X29028571Y-7293429D01*
X29173714Y-7366000D01*
X29899428Y-8309429D02*
X29899428Y-7293429D01*
X29899428Y-6785429D02*
X29826857Y-6858000D01*
X29899428Y-6930571D01*
X29972000Y-6858000D01*
X29899428Y-6785429D01*
X29899428Y-6930571D01*
X30479999Y-8309429D02*
X31278285Y-7293429D01*
X30479999Y-7293429D02*
X31278285Y-8309429D01*
X31858856Y-8164286D02*
X31931428Y-8236857D01*
X31858856Y-8309429D01*
X31786285Y-8236857D01*
X31858856Y-8164286D01*
X31858856Y-8309429D01*
X33237713Y-8236857D02*
X33092570Y-8309429D01*
X32802284Y-8309429D01*
X32657142Y-8236857D01*
X32584570Y-8164286D01*
X32511999Y-8019143D01*
X32511999Y-7583714D01*
X32584570Y-7438571D01*
X32657142Y-7366000D01*
X32802284Y-7293429D01*
X33092570Y-7293429D01*
X33237713Y-7366000D01*
X34108570Y-8309429D02*
X33963428Y-8236857D01*
X33890856Y-8164286D01*
X33818285Y-8019143D01*
X33818285Y-7583714D01*
X33890856Y-7438571D01*
X33963428Y-7366000D01*
X34108570Y-7293429D01*
X34326285Y-7293429D01*
X34471428Y-7366000D01*
X34543999Y-7438571D01*
X34616570Y-7583714D01*
X34616570Y-8019143D01*
X34543999Y-8164286D01*
X34471428Y-8236857D01*
X34326285Y-8309429D01*
X34108570Y-8309429D01*
X35269713Y-8309429D02*
X35269713Y-7293429D01*
X35269713Y-7438571D02*
X35342285Y-7366000D01*
X35487427Y-7293429D01*
X35705142Y-7293429D01*
X35850285Y-7366000D01*
X35922856Y-7511143D01*
X35922856Y-8309429D01*
X35922856Y-7511143D02*
X35995427Y-7366000D01*
X36140570Y-7293429D01*
X36358285Y-7293429D01*
X36503427Y-7366000D01*
X36575999Y-7511143D01*
X36575999Y-8309429D01*
X15094857Y-13589000D02*
X15820571Y-13589000D01*
X14949714Y-14024429D02*
X15457714Y-12500429D01*
X15965714Y-14024429D01*
X16473714Y-14024429D02*
X16473714Y-13008429D01*
X16473714Y-13298714D02*
X16546286Y-13153571D01*
X16618857Y-13081000D01*
X16764000Y-13008429D01*
X16909143Y-13008429D01*
X18070286Y-14024429D02*
X18070286Y-12500429D01*
X18070286Y-13951857D02*
X17925143Y-14024429D01*
X17634857Y-14024429D01*
X17489715Y-13951857D01*
X17417143Y-13879286D01*
X17344572Y-13734143D01*
X17344572Y-13298714D01*
X17417143Y-13153571D01*
X17489715Y-13081000D01*
X17634857Y-13008429D01*
X17925143Y-13008429D01*
X18070286Y-13081000D01*
X19449143Y-13008429D02*
X19449143Y-14024429D01*
X18796000Y-13008429D02*
X18796000Y-13806714D01*
X18868572Y-13951857D01*
X19013714Y-14024429D01*
X19231429Y-14024429D01*
X19376572Y-13951857D01*
X19449143Y-13879286D01*
X20174857Y-14024429D02*
X20174857Y-13008429D01*
X20174857Y-12500429D02*
X20102286Y-12573000D01*
X20174857Y-12645571D01*
X20247429Y-12573000D01*
X20174857Y-12500429D01*
X20174857Y-12645571D01*
X20900571Y-13008429D02*
X20900571Y-14024429D01*
X20900571Y-13153571D02*
X20973143Y-13081000D01*
X21118285Y-13008429D01*
X21336000Y-13008429D01*
X21481143Y-13081000D01*
X21553714Y-13226143D01*
X21553714Y-14024429D01*
X22497142Y-14024429D02*
X22352000Y-13951857D01*
X22279428Y-13879286D01*
X22206857Y-13734143D01*
X22206857Y-13298714D01*
X22279428Y-13153571D01*
X22352000Y-13081000D01*
X22497142Y-13008429D01*
X22714857Y-13008429D01*
X22860000Y-13081000D01*
X22932571Y-13153571D01*
X23005142Y-13298714D01*
X23005142Y-13734143D01*
X22932571Y-13879286D01*
X22860000Y-13951857D01*
X22714857Y-14024429D01*
X22497142Y-14024429D01*
X25690285Y-14024429D02*
X25182285Y-13298714D01*
X24819428Y-14024429D02*
X24819428Y-12500429D01*
X25400000Y-12500429D01*
X25545142Y-12573000D01*
X25617714Y-12645571D01*
X25690285Y-12790714D01*
X25690285Y-13008429D01*
X25617714Y-13153571D01*
X25545142Y-13226143D01*
X25400000Y-13298714D01*
X24819428Y-13298714D01*
X26851428Y-13226143D02*
X26343428Y-13226143D01*
X26343428Y-14024429D02*
X26343428Y-12500429D01*
X27069142Y-12500429D01*
X28738286Y-13951857D02*
X28956000Y-14024429D01*
X29318857Y-14024429D01*
X29464000Y-13951857D01*
X29536571Y-13879286D01*
X29609143Y-13734143D01*
X29609143Y-13589000D01*
X29536571Y-13443857D01*
X29464000Y-13371286D01*
X29318857Y-13298714D01*
X29028571Y-13226143D01*
X28883429Y-13153571D01*
X28810857Y-13081000D01*
X28738286Y-12935857D01*
X28738286Y-12790714D01*
X28810857Y-12645571D01*
X28883429Y-12573000D01*
X29028571Y-12500429D01*
X29391429Y-12500429D01*
X29609143Y-12573000D01*
X30480000Y-14024429D02*
X30334858Y-13951857D01*
X30262286Y-13879286D01*
X30189715Y-13734143D01*
X30189715Y-13298714D01*
X30262286Y-13153571D01*
X30334858Y-13081000D01*
X30480000Y-13008429D01*
X30697715Y-13008429D01*
X30842858Y-13081000D01*
X30915429Y-13153571D01*
X30988000Y-13298714D01*
X30988000Y-13734143D01*
X30915429Y-13879286D01*
X30842858Y-13951857D01*
X30697715Y-14024429D01*
X30480000Y-14024429D01*
X32294286Y-13951857D02*
X32149143Y-14024429D01*
X31858857Y-14024429D01*
X31713715Y-13951857D01*
X31641143Y-13879286D01*
X31568572Y-13734143D01*
X31568572Y-13298714D01*
X31641143Y-13153571D01*
X31713715Y-13081000D01*
X31858857Y-13008429D01*
X32149143Y-13008429D01*
X32294286Y-13081000D01*
X32947429Y-14024429D02*
X32947429Y-12500429D01*
X33092572Y-13443857D02*
X33528001Y-14024429D01*
X33528001Y-13008429D02*
X32947429Y-13589000D01*
X34761715Y-13951857D02*
X34616572Y-14024429D01*
X34326286Y-14024429D01*
X34181143Y-13951857D01*
X34108572Y-13806714D01*
X34108572Y-13226143D01*
X34181143Y-13081000D01*
X34326286Y-13008429D01*
X34616572Y-13008429D01*
X34761715Y-13081000D01*
X34834286Y-13226143D01*
X34834286Y-13371286D01*
X34108572Y-13516429D01*
X35269715Y-13008429D02*
X35850286Y-13008429D01*
X35487429Y-12500429D02*
X35487429Y-13806714D01*
X35560001Y-13951857D01*
X35705143Y-14024429D01*
X35850286Y-14024429D01*
D12*
X34925000Y-14605000D02*
X37465000Y-17145000D01*
X15875000Y-14605000D02*
X34925000Y-14605000D01*
X13335000Y-17145000D02*
X15875000Y-14605000D01*
D13*
X10287143Y-48780000D02*
X10144286Y-48708571D01*
X9930000Y-48708571D01*
X9715715Y-48780000D01*
X9572857Y-48922857D01*
X9501429Y-49065714D01*
X9430000Y-49351429D01*
X9430000Y-49565714D01*
X9501429Y-49851429D01*
X9572857Y-49994286D01*
X9715715Y-50137143D01*
X9930000Y-50208571D01*
X10072857Y-50208571D01*
X10287143Y-50137143D01*
X10358572Y-50065714D01*
X10358572Y-49565714D01*
X10072857Y-49565714D01*
X11001429Y-50208571D02*
X11001429Y-48708571D01*
X11858572Y-50208571D01*
X11858572Y-48708571D01*
X12572858Y-50208571D02*
X12572858Y-48708571D01*
X12930001Y-48708571D01*
X13144286Y-48780000D01*
X13287144Y-48922857D01*
X13358572Y-49065714D01*
X13430001Y-49351429D01*
X13430001Y-49565714D01*
X13358572Y-49851429D01*
X13287144Y-49994286D01*
X13144286Y-50137143D01*
X12930001Y-50208571D01*
X12572858Y-50208571D01*
X9787143Y-46168571D02*
X10287143Y-47668571D01*
X10787143Y-46168571D01*
X11287143Y-47668571D02*
X11287143Y-46168571D01*
X12001429Y-47668571D02*
X12001429Y-46168571D01*
X12858572Y-47668571D01*
X12858572Y-46168571D01*
X10287144Y-43628571D02*
X11215715Y-43628571D01*
X10715715Y-44200000D01*
X10930001Y-44200000D01*
X11072858Y-44271429D01*
X11144287Y-44342857D01*
X11215715Y-44485714D01*
X11215715Y-44842857D01*
X11144287Y-44985714D01*
X11072858Y-45057143D01*
X10930001Y-45128571D01*
X10501429Y-45128571D01*
X10358572Y-45057143D01*
X10287144Y-44985714D01*
X11644286Y-43628571D02*
X12144286Y-45128571D01*
X12644286Y-43628571D01*
X10287143Y-41088571D02*
X11144286Y-41088571D01*
X10715715Y-42588571D02*
X10715715Y-41088571D01*
X11501429Y-41088571D02*
X12501429Y-42588571D01*
X12501429Y-41088571D02*
X11501429Y-42588571D01*
X11180001Y-40048571D02*
X10680001Y-39334286D01*
X10322858Y-40048571D02*
X10322858Y-38548571D01*
X10894286Y-38548571D01*
X11037144Y-38620000D01*
X11108572Y-38691429D01*
X11180001Y-38834286D01*
X11180001Y-39048571D01*
X11108572Y-39191429D01*
X11037144Y-39262857D01*
X10894286Y-39334286D01*
X10322858Y-39334286D01*
X11680001Y-38548571D02*
X12680001Y-40048571D01*
X12680001Y-38548571D02*
X11680001Y-40048571D01*
X10358572Y-37080000D02*
X11072858Y-37080000D01*
X10215715Y-37508571D02*
X10715715Y-36008571D01*
X11215715Y-37508571D01*
X11572858Y-36008571D02*
X12572858Y-36008571D01*
X11930001Y-37508571D01*
X10358572Y-34540000D02*
X11072858Y-34540000D01*
X10215715Y-34968571D02*
X10715715Y-33468571D01*
X11215715Y-34968571D01*
X12358572Y-33468571D02*
X12072858Y-33468571D01*
X11930001Y-33540000D01*
X11858572Y-33611429D01*
X11715715Y-33825714D01*
X11644286Y-34111429D01*
X11644286Y-34682857D01*
X11715715Y-34825714D01*
X11787143Y-34897143D01*
X11930001Y-34968571D01*
X12215715Y-34968571D01*
X12358572Y-34897143D01*
X12430001Y-34825714D01*
X12501429Y-34682857D01*
X12501429Y-34325714D01*
X12430001Y-34182857D01*
X12358572Y-34111429D01*
X12215715Y-34040000D01*
X11930001Y-34040000D01*
X11787143Y-34111429D01*
X11715715Y-34182857D01*
X11644286Y-34325714D01*
X10358572Y-32000000D02*
X11072858Y-32000000D01*
X10215715Y-32428571D02*
X10715715Y-30928571D01*
X11215715Y-32428571D01*
X12430001Y-30928571D02*
X11715715Y-30928571D01*
X11644286Y-31642857D01*
X11715715Y-31571429D01*
X11858572Y-31500000D01*
X12215715Y-31500000D01*
X12358572Y-31571429D01*
X12430001Y-31642857D01*
X12501429Y-31785714D01*
X12501429Y-32142857D01*
X12430001Y-32285714D01*
X12358572Y-32357143D01*
X12215715Y-32428571D01*
X11858572Y-32428571D01*
X11715715Y-32357143D01*
X11644286Y-32285714D01*
X10358572Y-29460000D02*
X11072858Y-29460000D01*
X10215715Y-29888571D02*
X10715715Y-28388571D01*
X11215715Y-29888571D01*
X12358572Y-28888571D02*
X12358572Y-29888571D01*
X12001429Y-28317143D02*
X11644286Y-29388571D01*
X12572858Y-29388571D01*
X10358572Y-26920000D02*
X11072858Y-26920000D01*
X10215715Y-27348571D02*
X10715715Y-25848571D01*
X11215715Y-27348571D01*
X11572858Y-25848571D02*
X12501429Y-25848571D01*
X12001429Y-26420000D01*
X12215715Y-26420000D01*
X12358572Y-26491429D01*
X12430001Y-26562857D01*
X12501429Y-26705714D01*
X12501429Y-27062857D01*
X12430001Y-27205714D01*
X12358572Y-27277143D01*
X12215715Y-27348571D01*
X11787143Y-27348571D01*
X11644286Y-27277143D01*
X11572858Y-27205714D01*
X10358572Y-24380000D02*
X11072858Y-24380000D01*
X10215715Y-24808571D02*
X10715715Y-23308571D01*
X11215715Y-24808571D01*
X11644286Y-23451429D02*
X11715715Y-23380000D01*
X11858572Y-23308571D01*
X12215715Y-23308571D01*
X12358572Y-23380000D01*
X12430001Y-23451429D01*
X12501429Y-23594286D01*
X12501429Y-23737143D01*
X12430001Y-23951429D01*
X11572858Y-24808571D01*
X12501429Y-24808571D01*
X10358572Y-21840000D02*
X11072858Y-21840000D01*
X10215715Y-22268571D02*
X10715715Y-20768571D01*
X11215715Y-22268571D01*
X12501429Y-22268571D02*
X11644286Y-22268571D01*
X12072858Y-22268571D02*
X12072858Y-20768571D01*
X11930001Y-20982857D01*
X11787143Y-21125714D01*
X11644286Y-21197143D01*
X10358572Y-19300000D02*
X11072858Y-19300000D01*
X10215715Y-19728571D02*
X10715715Y-18228571D01*
X11215715Y-19728571D01*
X12001429Y-18228571D02*
X12144286Y-18228571D01*
X12287143Y-18300000D01*
X12358572Y-18371429D01*
X12430001Y-18514286D01*
X12501429Y-18800000D01*
X12501429Y-19157143D01*
X12430001Y-19442857D01*
X12358572Y-19585714D01*
X12287143Y-19657143D01*
X12144286Y-19728571D01*
X12001429Y-19728571D01*
X11858572Y-19657143D01*
X11787143Y-19585714D01*
X11715715Y-19442857D01*
X11644286Y-19157143D01*
X11644286Y-18800000D01*
X11715715Y-18514286D01*
X11787143Y-18371429D01*
X11858572Y-18300000D01*
X12001429Y-18228571D01*
X37814286Y-19728571D02*
X36957143Y-19728571D01*
X37385715Y-19728571D02*
X37385715Y-18228571D01*
X37242858Y-18442857D01*
X37100000Y-18585714D01*
X36957143Y-18657143D01*
X38314286Y-18228571D02*
X39242857Y-18228571D01*
X38742857Y-18800000D01*
X38957143Y-18800000D01*
X39100000Y-18871429D01*
X39171429Y-18942857D01*
X39242857Y-19085714D01*
X39242857Y-19442857D01*
X39171429Y-19585714D01*
X39100000Y-19657143D01*
X38957143Y-19728571D01*
X38528571Y-19728571D01*
X38385714Y-19657143D01*
X38314286Y-19585714D01*
X37814286Y-22268571D02*
X36957143Y-22268571D01*
X37385715Y-22268571D02*
X37385715Y-20768571D01*
X37242858Y-20982857D01*
X37100000Y-21125714D01*
X36957143Y-21197143D01*
X38385714Y-20911429D02*
X38457143Y-20840000D01*
X38600000Y-20768571D01*
X38957143Y-20768571D01*
X39100000Y-20840000D01*
X39171429Y-20911429D01*
X39242857Y-21054286D01*
X39242857Y-21197143D01*
X39171429Y-21411429D01*
X38314286Y-22268571D01*
X39242857Y-22268571D01*
X37814286Y-24808571D02*
X36957143Y-24808571D01*
X37385715Y-24808571D02*
X37385715Y-23308571D01*
X37242858Y-23522857D01*
X37100000Y-23665714D01*
X36957143Y-23737143D01*
X39242857Y-24808571D02*
X38385714Y-24808571D01*
X38814286Y-24808571D02*
X38814286Y-23308571D01*
X38671429Y-23522857D01*
X38528571Y-23665714D01*
X38385714Y-23737143D01*
X37814286Y-27348571D02*
X36957143Y-27348571D01*
X37385715Y-27348571D02*
X37385715Y-25848571D01*
X37242858Y-26062857D01*
X37100000Y-26205714D01*
X36957143Y-26277143D01*
X38742857Y-25848571D02*
X38885714Y-25848571D01*
X39028571Y-25920000D01*
X39100000Y-25991429D01*
X39171429Y-26134286D01*
X39242857Y-26420000D01*
X39242857Y-26777143D01*
X39171429Y-27062857D01*
X39100000Y-27205714D01*
X39028571Y-27277143D01*
X38885714Y-27348571D01*
X38742857Y-27348571D01*
X38600000Y-27277143D01*
X38528571Y-27205714D01*
X38457143Y-27062857D01*
X38385714Y-26777143D01*
X38385714Y-26420000D01*
X38457143Y-26134286D01*
X38528571Y-25991429D01*
X38600000Y-25920000D01*
X38742857Y-25848571D01*
X37814286Y-29888571D02*
X38100001Y-29888571D01*
X38242858Y-29817143D01*
X38314286Y-29745714D01*
X38457144Y-29531429D01*
X38528572Y-29245714D01*
X38528572Y-28674286D01*
X38457144Y-28531429D01*
X38385715Y-28460000D01*
X38242858Y-28388571D01*
X37957144Y-28388571D01*
X37814286Y-28460000D01*
X37742858Y-28531429D01*
X37671429Y-28674286D01*
X37671429Y-29031429D01*
X37742858Y-29174286D01*
X37814286Y-29245714D01*
X37957144Y-29317143D01*
X38242858Y-29317143D01*
X38385715Y-29245714D01*
X38457144Y-29174286D01*
X38528572Y-29031429D01*
X37957144Y-31571429D02*
X37814286Y-31500000D01*
X37742858Y-31428571D01*
X37671429Y-31285714D01*
X37671429Y-31214286D01*
X37742858Y-31071429D01*
X37814286Y-31000000D01*
X37957144Y-30928571D01*
X38242858Y-30928571D01*
X38385715Y-31000000D01*
X38457144Y-31071429D01*
X38528572Y-31214286D01*
X38528572Y-31285714D01*
X38457144Y-31428571D01*
X38385715Y-31500000D01*
X38242858Y-31571429D01*
X37957144Y-31571429D01*
X37814286Y-31642857D01*
X37742858Y-31714286D01*
X37671429Y-31857143D01*
X37671429Y-32142857D01*
X37742858Y-32285714D01*
X37814286Y-32357143D01*
X37957144Y-32428571D01*
X38242858Y-32428571D01*
X38385715Y-32357143D01*
X38457144Y-32285714D01*
X38528572Y-32142857D01*
X38528572Y-31857143D01*
X38457144Y-31714286D01*
X38385715Y-31642857D01*
X38242858Y-31571429D01*
X37600001Y-33468571D02*
X38600001Y-33468571D01*
X37957144Y-34968571D01*
X38385715Y-36008571D02*
X38100001Y-36008571D01*
X37957144Y-36080000D01*
X37885715Y-36151429D01*
X37742858Y-36365714D01*
X37671429Y-36651429D01*
X37671429Y-37222857D01*
X37742858Y-37365714D01*
X37814286Y-37437143D01*
X37957144Y-37508571D01*
X38242858Y-37508571D01*
X38385715Y-37437143D01*
X38457144Y-37365714D01*
X38528572Y-37222857D01*
X38528572Y-36865714D01*
X38457144Y-36722857D01*
X38385715Y-36651429D01*
X38242858Y-36580000D01*
X37957144Y-36580000D01*
X37814286Y-36651429D01*
X37742858Y-36722857D01*
X37671429Y-36865714D01*
X38457144Y-38548571D02*
X37742858Y-38548571D01*
X37671429Y-39262857D01*
X37742858Y-39191429D01*
X37885715Y-39120000D01*
X38242858Y-39120000D01*
X38385715Y-39191429D01*
X38457144Y-39262857D01*
X38528572Y-39405714D01*
X38528572Y-39762857D01*
X38457144Y-39905714D01*
X38385715Y-39977143D01*
X38242858Y-40048571D01*
X37885715Y-40048571D01*
X37742858Y-39977143D01*
X37671429Y-39905714D01*
X38385715Y-41588571D02*
X38385715Y-42588571D01*
X38028572Y-41017143D02*
X37671429Y-42088571D01*
X38600001Y-42088571D01*
X37600001Y-43628571D02*
X38528572Y-43628571D01*
X38028572Y-44200000D01*
X38242858Y-44200000D01*
X38385715Y-44271429D01*
X38457144Y-44342857D01*
X38528572Y-44485714D01*
X38528572Y-44842857D01*
X38457144Y-44985714D01*
X38385715Y-45057143D01*
X38242858Y-45128571D01*
X37814286Y-45128571D01*
X37671429Y-45057143D01*
X37600001Y-44985714D01*
X37671429Y-46311429D02*
X37742858Y-46240000D01*
X37885715Y-46168571D01*
X38242858Y-46168571D01*
X38385715Y-46240000D01*
X38457144Y-46311429D01*
X38528572Y-46454286D01*
X38528572Y-46597143D01*
X38457144Y-46811429D01*
X37600001Y-47668571D01*
X38528572Y-47668571D01*
X38548572Y-50208571D02*
X38048572Y-49494286D01*
X37691429Y-50208571D02*
X37691429Y-48708571D01*
X38262857Y-48708571D01*
X38405715Y-48780000D01*
X38477143Y-48851429D01*
X38548572Y-48994286D01*
X38548572Y-49208571D01*
X38477143Y-49351429D01*
X38405715Y-49422857D01*
X38262857Y-49494286D01*
X37691429Y-49494286D01*
X39120000Y-50137143D02*
X39334286Y-50208571D01*
X39691429Y-50208571D01*
X39834286Y-50137143D01*
X39905715Y-50065714D01*
X39977143Y-49922857D01*
X39977143Y-49780000D01*
X39905715Y-49637143D01*
X39834286Y-49565714D01*
X39691429Y-49494286D01*
X39405715Y-49422857D01*
X39262857Y-49351429D01*
X39191429Y-49280000D01*
X39120000Y-49137143D01*
X39120000Y-48994286D01*
X39191429Y-48851429D01*
X39262857Y-48780000D01*
X39405715Y-48708571D01*
X39762857Y-48708571D01*
X39977143Y-48780000D01*
X40405714Y-48708571D02*
X41262857Y-48708571D01*
X40834286Y-50208571D02*
X40834286Y-48708571D01*
D14*
X19558000Y-58928000D02*
X8382000Y-58928000D01*
X19558000Y-60071000D02*
X8382000Y-60071000D01*
X8382000Y-60071000D02*
X8382000Y-52451000D01*
X8382000Y-52451000D02*
X19558000Y-52451000D01*
X19558000Y-52451000D02*
X19558000Y-60071000D01*
D11*
X34290000Y-50800000D02*
X34290000Y-17780000D01*
X36830000Y-17780000D02*
X36830000Y-50800000D01*
X36830000Y-50800000D02*
X34290000Y-50800000D01*
X34290000Y-20320000D02*
X36830000Y-20320000D01*
X34290000Y-17780000D02*
X36830000Y-17780000D01*
X13970000Y-50800000D02*
X13970000Y-17780000D01*
X16510000Y-17780000D02*
X16510000Y-50800000D01*
X16510000Y-50800000D02*
X13970000Y-50800000D01*
X13970000Y-20320000D02*
X16510000Y-20320000D01*
X13970000Y-17780000D02*
X16510000Y-17780000D01*
X38100000Y-61620000D02*
X38100000Y-60820000D01*
X40840000Y-55820000D02*
X35360000Y-55820000D01*
X40840000Y-60820000D02*
X35360000Y-60820000D01*
X40840000Y-55120000D02*
X40840000Y-61620000D01*
X40840000Y-61620000D02*
X35360000Y-61620000D01*
X35360000Y-61620000D02*
X35360000Y-55120000D01*
X35360000Y-55120000D02*
X40840000Y-55120000D01*
X39369840Y-59768880D02*
X38869460Y-60469920D01*
X38869460Y-60469920D02*
X39870220Y-60469920D01*
X39870220Y-60469920D02*
X39369840Y-59768880D01*
X48288880Y-19039840D02*
X48989920Y-18539460D01*
X48989920Y-18539460D02*
X48989920Y-19540220D01*
X48989920Y-19540220D02*
X48288880Y-19039840D01*
X44389040Y-17541240D02*
X44389040Y-38338760D01*
X49390300Y-17541240D02*
X49390300Y-38338760D01*
X50190400Y-17541240D02*
X43690540Y-17541240D01*
X43690540Y-17541240D02*
X43690540Y-38338760D01*
X43690540Y-38338760D02*
X50190400Y-38338760D01*
X50190400Y-38338760D02*
X50190400Y-17541240D01*
X49560480Y-35560000D02*
X50195480Y-35560000D01*
X49560480Y-33020000D02*
X50195480Y-33020000D01*
X49560480Y-30480000D02*
X50195480Y-30480000D01*
X49560480Y-27940000D02*
X50195480Y-27940000D01*
X49560480Y-25400000D02*
X50195480Y-25400000D01*
X49560480Y-22860000D02*
X50195480Y-22860000D01*
X49560480Y-20320000D02*
X50195480Y-20320000D01*
D15*
X41050000Y-43145000D02*
X41050000Y-44945000D01*
X41050000Y-40145000D02*
X41050000Y-41945000D01*
X47850000Y-41945000D02*
X47850000Y-39145000D01*
X47850000Y-45945000D02*
X47850000Y-43145000D01*
X47850000Y-45945000D02*
X42050000Y-45945000D01*
X42050000Y-45945000D02*
X41050000Y-44945000D01*
X41050000Y-40145000D02*
X42050000Y-39145000D01*
X42050000Y-39145000D02*
X47850000Y-39145000D01*
D16*
X23749000Y-48641000D02*
X23749000Y-51435000D01*
X23749000Y-51435000D02*
X21971000Y-51435000D01*
X21971000Y-51435000D02*
X21971000Y-48641000D01*
X21971000Y-48641000D02*
X23749000Y-48641000D01*
X25273000Y-54483000D02*
X22479000Y-54483000D01*
X22479000Y-54483000D02*
X22479000Y-52705000D01*
X22479000Y-52705000D02*
X25273000Y-52705000D01*
X25273000Y-52705000D02*
X25273000Y-54483000D01*
X27686000Y-49022000D02*
X27686000Y-46228000D01*
X27686000Y-46228000D02*
X29464000Y-46228000D01*
X29464000Y-46228000D02*
X29464000Y-49022000D01*
X29464000Y-49022000D02*
X27686000Y-49022000D01*
X30226000Y-49022000D02*
X30226000Y-46228000D01*
X30226000Y-46228000D02*
X32004000Y-46228000D01*
X32004000Y-46228000D02*
X32004000Y-49022000D01*
X32004000Y-49022000D02*
X30226000Y-49022000D01*
D12*
X42545000Y-34671000D02*
G75*
G03X42545000Y-34671000I-127000J0D01*
G01*
X42672000Y-34417000D02*
X42672000Y-35433000D01*
X39878000Y-34417000D02*
X39878000Y-35433000D01*
X42672000Y-35433000D02*
X39878000Y-35433000D01*
X42672000Y-34417000D02*
X39878000Y-34417000D01*
D16*
X31242000Y-43434000D02*
X28448000Y-43434000D01*
X28448000Y-43434000D02*
X28448000Y-41656000D01*
X28448000Y-41656000D02*
X31242000Y-41656000D01*
X31242000Y-41656000D02*
X31242000Y-43434000D01*
X33147000Y-56134000D02*
X30353000Y-56134000D01*
X30353000Y-56134000D02*
X30353000Y-54356000D01*
X30353000Y-54356000D02*
X33147000Y-54356000D01*
X33147000Y-54356000D02*
X33147000Y-56134000D01*
X33147000Y-54229000D02*
X30353000Y-54229000D01*
X30353000Y-54229000D02*
X30353000Y-52451000D01*
X30353000Y-52451000D02*
X33147000Y-52451000D01*
X33147000Y-52451000D02*
X33147000Y-54229000D01*
D12*
X25781000Y-49530000D02*
G75*
G03X25781000Y-49530000I-127000J0D01*
G01*
X25400000Y-49276000D02*
X25400000Y-52324000D01*
X25400000Y-52324000D02*
X26670000Y-52324000D01*
X26670000Y-52324000D02*
X26670000Y-49276000D01*
X26670000Y-49276000D02*
X25400000Y-49276000D01*
D11*
X45720000Y-46990000D02*
X45720000Y-52070000D01*
X48260000Y-46990000D02*
X48260000Y-52070000D01*
X45720000Y-46990000D02*
X48260000Y-46990000D01*
X48260000Y-52070000D02*
X45720000Y-52070000D01*
X48260000Y-49530000D02*
X45720000Y-49530000D01*
X44450000Y-52070000D02*
X44450000Y-46990000D01*
X41910000Y-52070000D02*
X41910000Y-46990000D01*
X44450000Y-52070000D02*
X41910000Y-52070000D01*
X41910000Y-46990000D02*
X44450000Y-46990000D01*
X41910000Y-49530000D02*
X44450000Y-49530000D01*
D16*
X32639000Y-36703000D02*
X32639000Y-39497000D01*
X32639000Y-39497000D02*
X30861000Y-39497000D01*
X30861000Y-39497000D02*
X30861000Y-36703000D01*
X30861000Y-36703000D02*
X32639000Y-36703000D01*
D14*
X7063619Y-54622095D02*
X7063619Y-54041524D01*
X8079619Y-54331809D02*
X7063619Y-54331809D01*
X7547429Y-53364191D02*
X7595810Y-53219048D01*
X7644190Y-53170667D01*
X7740952Y-53122286D01*
X7886095Y-53122286D01*
X7982857Y-53170667D01*
X8031238Y-53219048D01*
X8079619Y-53315810D01*
X8079619Y-53702857D01*
X7063619Y-53702857D01*
X7063619Y-53364191D01*
X7112000Y-53267429D01*
X7160381Y-53219048D01*
X7257143Y-53170667D01*
X7353905Y-53170667D01*
X7450667Y-53219048D01*
X7499048Y-53267429D01*
X7547429Y-53364191D01*
X7547429Y-53702857D01*
X7160381Y-52735238D02*
X7112000Y-52686857D01*
X7063619Y-52590095D01*
X7063619Y-52348191D01*
X7112000Y-52251429D01*
X7160381Y-52203048D01*
X7257143Y-52154667D01*
X7353905Y-52154667D01*
X7499048Y-52203048D01*
X8079619Y-52783619D01*
X8079619Y-52154667D01*
X33951333Y-15953619D02*
X33951333Y-16679333D01*
X33902953Y-16824476D01*
X33806191Y-16921238D01*
X33661048Y-16969619D01*
X33564286Y-16969619D01*
X34386762Y-16050381D02*
X34435143Y-16002000D01*
X34531905Y-15953619D01*
X34773809Y-15953619D01*
X34870571Y-16002000D01*
X34918952Y-16050381D01*
X34967333Y-16147143D01*
X34967333Y-16243905D01*
X34918952Y-16389048D01*
X34338381Y-16969619D01*
X34967333Y-16969619D01*
X16171333Y-15953619D02*
X16171333Y-16679333D01*
X16122953Y-16824476D01*
X16026191Y-16921238D01*
X15881048Y-16969619D01*
X15784286Y-16969619D01*
X17187333Y-16969619D02*
X16606762Y-16969619D01*
X16897048Y-16969619D02*
X16897048Y-15953619D01*
X16800286Y-16098762D01*
X16703524Y-16195524D01*
X16606762Y-16243905D01*
X36817905Y-53418619D02*
X37398476Y-53418619D01*
X37108191Y-54434619D02*
X37108191Y-53418619D01*
X38075809Y-53902429D02*
X38220952Y-53950810D01*
X38269333Y-53999190D01*
X38317714Y-54095952D01*
X38317714Y-54241095D01*
X38269333Y-54337857D01*
X38220952Y-54386238D01*
X38124190Y-54434619D01*
X37737143Y-54434619D01*
X37737143Y-53418619D01*
X38075809Y-53418619D01*
X38172571Y-53467000D01*
X38220952Y-53515381D01*
X38269333Y-53612143D01*
X38269333Y-53708905D01*
X38220952Y-53805667D01*
X38172571Y-53854048D01*
X38075809Y-53902429D01*
X37737143Y-53902429D01*
X38656381Y-53418619D02*
X39285333Y-53418619D01*
X38946667Y-53805667D01*
X39091809Y-53805667D01*
X39188571Y-53854048D01*
X39236952Y-53902429D01*
X39285333Y-53999190D01*
X39285333Y-54241095D01*
X39236952Y-54337857D01*
X39188571Y-54386238D01*
X39091809Y-54434619D01*
X38801524Y-54434619D01*
X38704762Y-54386238D01*
X38656381Y-54337857D01*
X41988619Y-28587095D02*
X41988619Y-28006524D01*
X43004619Y-28296809D02*
X41988619Y-28296809D01*
X42472429Y-27329191D02*
X42520810Y-27184048D01*
X42569190Y-27135667D01*
X42665952Y-27087286D01*
X42811095Y-27087286D01*
X42907857Y-27135667D01*
X42956238Y-27184048D01*
X43004619Y-27280810D01*
X43004619Y-27667857D01*
X41988619Y-27667857D01*
X41988619Y-27329191D01*
X42037000Y-27232429D01*
X42085381Y-27184048D01*
X42182143Y-27135667D01*
X42278905Y-27135667D01*
X42375667Y-27184048D01*
X42424048Y-27232429D01*
X42472429Y-27329191D01*
X42472429Y-27667857D01*
X43004619Y-26119667D02*
X43004619Y-26700238D01*
X43004619Y-26409952D02*
X41988619Y-26409952D01*
X42133762Y-26506714D01*
X42230524Y-26603476D01*
X42278905Y-26700238D01*
D15*
X49252143Y-45251666D02*
X49299762Y-45299285D01*
X49347381Y-45442142D01*
X49347381Y-45537380D01*
X49299762Y-45680238D01*
X49204524Y-45775476D01*
X49109286Y-45823095D01*
X48918810Y-45870714D01*
X48775952Y-45870714D01*
X48585476Y-45823095D01*
X48490238Y-45775476D01*
X48395000Y-45680238D01*
X48347381Y-45537380D01*
X48347381Y-45442142D01*
X48395000Y-45299285D01*
X48442619Y-45251666D01*
X48347381Y-44918333D02*
X48347381Y-44299285D01*
X48728333Y-44632619D01*
X48728333Y-44489761D01*
X48775952Y-44394523D01*
X48823571Y-44346904D01*
X48918810Y-44299285D01*
X49156905Y-44299285D01*
X49252143Y-44346904D01*
X49299762Y-44394523D01*
X49347381Y-44489761D01*
X49347381Y-44775476D01*
X49299762Y-44870714D01*
X49252143Y-44918333D01*
D16*
X21444857Y-50207333D02*
X21493238Y-50255714D01*
X21541619Y-50400857D01*
X21541619Y-50497619D01*
X21493238Y-50642761D01*
X21396476Y-50739523D01*
X21299714Y-50787904D01*
X21106190Y-50836285D01*
X20961048Y-50836285D01*
X20767524Y-50787904D01*
X20670762Y-50739523D01*
X20574000Y-50642761D01*
X20525619Y-50497619D01*
X20525619Y-50400857D01*
X20574000Y-50255714D01*
X20622381Y-50207333D01*
X21541619Y-49239714D02*
X21541619Y-49820285D01*
X21541619Y-49529999D02*
X20525619Y-49529999D01*
X20670762Y-49626761D01*
X20767524Y-49723523D01*
X20815905Y-49820285D01*
X23706667Y-55861857D02*
X23658286Y-55910238D01*
X23513143Y-55958619D01*
X23416381Y-55958619D01*
X23271239Y-55910238D01*
X23174477Y-55813476D01*
X23126096Y-55716714D01*
X23077715Y-55523190D01*
X23077715Y-55378048D01*
X23126096Y-55184524D01*
X23174477Y-55087762D01*
X23271239Y-54991000D01*
X23416381Y-54942619D01*
X23513143Y-54942619D01*
X23658286Y-54991000D01*
X23706667Y-55039381D01*
X24093715Y-55039381D02*
X24142096Y-54991000D01*
X24238858Y-54942619D01*
X24480762Y-54942619D01*
X24577524Y-54991000D01*
X24625905Y-55039381D01*
X24674286Y-55136143D01*
X24674286Y-55232905D01*
X24625905Y-55378048D01*
X24045334Y-55958619D01*
X24674286Y-55958619D01*
X28937857Y-45254333D02*
X28986238Y-45302714D01*
X29034619Y-45447857D01*
X29034619Y-45544619D01*
X28986238Y-45689761D01*
X28889476Y-45786523D01*
X28792714Y-45834904D01*
X28599190Y-45883285D01*
X28454048Y-45883285D01*
X28260524Y-45834904D01*
X28163762Y-45786523D01*
X28067000Y-45689761D01*
X28018619Y-45544619D01*
X28018619Y-45447857D01*
X28067000Y-45302714D01*
X28115381Y-45254333D01*
X28357286Y-44383476D02*
X29034619Y-44383476D01*
X27970238Y-44625380D02*
X28695952Y-44867285D01*
X28695952Y-44238333D01*
X31477857Y-45254333D02*
X31526238Y-45302714D01*
X31574619Y-45447857D01*
X31574619Y-45544619D01*
X31526238Y-45689761D01*
X31429476Y-45786523D01*
X31332714Y-45834904D01*
X31139190Y-45883285D01*
X30994048Y-45883285D01*
X30800524Y-45834904D01*
X30703762Y-45786523D01*
X30607000Y-45689761D01*
X30558619Y-45544619D01*
X30558619Y-45447857D01*
X30607000Y-45302714D01*
X30655381Y-45254333D01*
X30558619Y-44335095D02*
X30558619Y-44818904D01*
X31042429Y-44867285D01*
X30994048Y-44818904D01*
X30945667Y-44722142D01*
X30945667Y-44480238D01*
X30994048Y-44383476D01*
X31042429Y-44335095D01*
X31139190Y-44286714D01*
X31381095Y-44286714D01*
X31477857Y-44335095D01*
X31526238Y-44383476D01*
X31574619Y-44480238D01*
X31574619Y-44722142D01*
X31526238Y-44818904D01*
X31477857Y-44867285D01*
D12*
X45544619Y-14647333D02*
X45544619Y-15131142D01*
X44528619Y-15131142D01*
X45544619Y-14308666D02*
X44528619Y-14308666D01*
X45544619Y-13728095D02*
X44964048Y-14163523D01*
X44528619Y-13728095D02*
X45109190Y-14308666D01*
X45544619Y-12760476D02*
X45544619Y-13341047D01*
X45544619Y-13050761D02*
X44528619Y-13050761D01*
X44673762Y-13147523D01*
X44770524Y-13244285D01*
X44818905Y-13341047D01*
X20277667Y-17604619D02*
X19793858Y-17604619D01*
X19793858Y-16588619D01*
X20616334Y-17604619D02*
X20616334Y-16588619D01*
X21196905Y-17604619D02*
X20761477Y-17024048D01*
X21196905Y-16588619D02*
X20616334Y-17169190D01*
X21583953Y-16685381D02*
X21632334Y-16637000D01*
X21729096Y-16588619D01*
X21971000Y-16588619D01*
X22067762Y-16637000D01*
X22116143Y-16685381D01*
X22164524Y-16782143D01*
X22164524Y-16878905D01*
X22116143Y-17024048D01*
X21535572Y-17604619D01*
X22164524Y-17604619D01*
X22817667Y-45544619D02*
X22333858Y-45544619D01*
X22333858Y-44528619D01*
X23156334Y-45544619D02*
X23156334Y-44528619D01*
X23736905Y-45544619D02*
X23301477Y-44964048D01*
X23736905Y-44528619D02*
X23156334Y-45109190D01*
X24075572Y-44528619D02*
X24704524Y-44528619D01*
X24365858Y-44915667D01*
X24511000Y-44915667D01*
X24607762Y-44964048D01*
X24656143Y-45012429D01*
X24704524Y-45109190D01*
X24704524Y-45351095D01*
X24656143Y-45447857D01*
X24607762Y-45496238D01*
X24511000Y-45544619D01*
X24220715Y-45544619D01*
X24123953Y-45496238D01*
X24075572Y-45447857D01*
X18372667Y-45544619D02*
X17888858Y-45544619D01*
X17888858Y-44528619D01*
X18711334Y-45544619D02*
X18711334Y-44528619D01*
X19291905Y-45544619D02*
X18856477Y-44964048D01*
X19291905Y-44528619D02*
X18711334Y-45109190D01*
X20162762Y-44867286D02*
X20162762Y-45544619D01*
X19920858Y-44480238D02*
X19678953Y-45205952D01*
X20307905Y-45205952D01*
D16*
X41178238Y-32687381D02*
X41081476Y-32639000D01*
X40984714Y-32542238D01*
X40839571Y-32397095D01*
X40742810Y-32348714D01*
X40646048Y-32348714D01*
X40694429Y-32590619D02*
X40597667Y-32542238D01*
X40500905Y-32445476D01*
X40452524Y-32251952D01*
X40452524Y-31913286D01*
X40500905Y-31719762D01*
X40597667Y-31623000D01*
X40694429Y-31574619D01*
X40887952Y-31574619D01*
X40984714Y-31623000D01*
X41081476Y-31719762D01*
X41129857Y-31913286D01*
X41129857Y-32251952D01*
X41081476Y-32445476D01*
X40984714Y-32542238D01*
X40887952Y-32590619D01*
X40694429Y-32590619D01*
X42097476Y-32590619D02*
X41516905Y-32590619D01*
X41807191Y-32590619D02*
X41807191Y-31574619D01*
X41710429Y-31719762D01*
X41613667Y-31816524D01*
X41516905Y-31864905D01*
X29675667Y-41099619D02*
X29337001Y-40615810D01*
X29095096Y-41099619D02*
X29095096Y-40083619D01*
X29482143Y-40083619D01*
X29578905Y-40132000D01*
X29627286Y-40180381D01*
X29675667Y-40277143D01*
X29675667Y-40422286D01*
X29627286Y-40519048D01*
X29578905Y-40567429D01*
X29482143Y-40615810D01*
X29095096Y-40615810D01*
X30643286Y-41099619D02*
X30062715Y-41099619D01*
X30353001Y-41099619D02*
X30353001Y-40083619D01*
X30256239Y-40228762D01*
X30159477Y-40325524D01*
X30062715Y-40373905D01*
X31580667Y-57609619D02*
X31242001Y-57125810D01*
X31000096Y-57609619D02*
X31000096Y-56593619D01*
X31387143Y-56593619D01*
X31483905Y-56642000D01*
X31532286Y-56690381D01*
X31580667Y-56787143D01*
X31580667Y-56932286D01*
X31532286Y-57029048D01*
X31483905Y-57077429D01*
X31387143Y-57125810D01*
X31000096Y-57125810D01*
X31967715Y-56690381D02*
X32016096Y-56642000D01*
X32112858Y-56593619D01*
X32354762Y-56593619D01*
X32451524Y-56642000D01*
X32499905Y-56690381D01*
X32548286Y-56787143D01*
X32548286Y-56883905D01*
X32499905Y-57029048D01*
X31919334Y-57609619D01*
X32548286Y-57609619D01*
X31580667Y-51894619D02*
X31242001Y-51410810D01*
X31000096Y-51894619D02*
X31000096Y-50878619D01*
X31387143Y-50878619D01*
X31483905Y-50927000D01*
X31532286Y-50975381D01*
X31580667Y-51072143D01*
X31580667Y-51217286D01*
X31532286Y-51314048D01*
X31483905Y-51362429D01*
X31387143Y-51410810D01*
X31000096Y-51410810D01*
X31919334Y-50878619D02*
X32548286Y-50878619D01*
X32209620Y-51265667D01*
X32354762Y-51265667D01*
X32451524Y-51314048D01*
X32499905Y-51362429D01*
X32548286Y-51459190D01*
X32548286Y-51701095D01*
X32499905Y-51797857D01*
X32451524Y-51846238D01*
X32354762Y-51894619D01*
X32064477Y-51894619D01*
X31967715Y-51846238D01*
X31919334Y-51797857D01*
D12*
X25260905Y-47703619D02*
X25260905Y-48526095D01*
X25309286Y-48622857D01*
X25357667Y-48671238D01*
X25454429Y-48719619D01*
X25647952Y-48719619D01*
X25744714Y-48671238D01*
X25793095Y-48622857D01*
X25841476Y-48526095D01*
X25841476Y-47703619D01*
X26857476Y-48719619D02*
X26276905Y-48719619D01*
X26567191Y-48719619D02*
X26567191Y-47703619D01*
X26470429Y-47848762D01*
X26373667Y-47945524D01*
X26276905Y-47993905D01*
D16*
X46433619Y-53678667D02*
X47159333Y-53678667D01*
X47304476Y-53727047D01*
X47401238Y-53823809D01*
X47449619Y-53968952D01*
X47449619Y-54065714D01*
X46433619Y-53291619D02*
X46433619Y-52662667D01*
X46820667Y-53001333D01*
X46820667Y-52856191D01*
X46869048Y-52759429D01*
X46917429Y-52711048D01*
X47014190Y-52662667D01*
X47256095Y-52662667D01*
X47352857Y-52711048D01*
X47401238Y-52759429D01*
X47449619Y-52856191D01*
X47449619Y-53146476D01*
X47401238Y-53243238D01*
X47352857Y-53291619D01*
X42623619Y-53678667D02*
X43349333Y-53678667D01*
X43494476Y-53727047D01*
X43591238Y-53823809D01*
X43639619Y-53968952D01*
X43639619Y-54065714D01*
X42962286Y-52759429D02*
X43639619Y-52759429D01*
X42575238Y-53001333D02*
X43300952Y-53243238D01*
X43300952Y-52614286D01*
X30431619Y-38269333D02*
X29947810Y-38607999D01*
X30431619Y-38849904D02*
X29415619Y-38849904D01*
X29415619Y-38462857D01*
X29464000Y-38366095D01*
X29512381Y-38317714D01*
X29609143Y-38269333D01*
X29754286Y-38269333D01*
X29851048Y-38317714D01*
X29899429Y-38366095D01*
X29947810Y-38462857D01*
X29947810Y-38849904D01*
X29754286Y-37398476D02*
X30431619Y-37398476D01*
X29367238Y-37640380D02*
X30092952Y-37882285D01*
X30092952Y-37253333D01*
M02*
